<svg width="124" height="124" viewBox="0 0 124 124" fill="none" xmlns="http://www.w3.org/2000/svg">
<path d="M22.4987 0.180153C18.6237 0.688744 17.219 1.34265 16.5408 3.01375C16.0807 4.07937 16.1291 4.87859 16.6619 5.94421C16.9283 6.42859 19.3987 9.06844 22.1354 11.8052C27.3182 16.9395 28.2869 18.0778 28.7713 19.6278C29.2799 21.1294 29.1346 23.2848 28.4807 24.7622C26.858 28.2739 22.9104 29.8723 19.1807 28.4677C17.9213 28.0075 17.1948 27.402 12.0846 22.3403C8.96038 19.2403 6.151 16.5762 5.86038 16.4309C5.13381 16.0676 3.72913 16.0919 2.92991 16.5036C1.30725 17.3512 0.653345 18.9497 0.217407 23.188C-0.533374 30.4294 2.17913 37.9372 7.50725 43.2653C9.75959 45.5177 11.6729 46.8739 14.5307 48.2302C18.333 50.0708 20.1979 50.4341 25.1627 50.4098C28.5049 50.3856 29.8854 50.2887 31.7018 49.877L34.0026 49.3684L54.2979 69.6395L74.5932 89.9348L74.0604 92.2114C73.6244 94.1247 73.5276 95.2388 73.5276 98.8716C73.5033 103.958 73.8424 105.58 75.6346 109.334C77.1119 112.386 78.3229 114.105 80.6479 116.43C84.3291 120.111 88.5432 122.364 93.8229 123.478C97.1408 124.18 104.213 123.647 106.053 122.558C107.434 121.758 108.088 119.772 107.482 118.198C107.361 117.835 104.746 115.001 101.718 111.95C98.2065 108.414 95.9783 105.992 95.6393 105.29C95.276 104.563 95.0338 103.618 94.9612 102.504C94.6463 97.1763 99.6838 93.5192 104.77 95.3841C106.029 95.8684 106.731 96.4497 111.866 101.56C114.99 104.66 117.872 107.324 118.235 107.445C119.277 107.857 120.294 107.76 121.311 107.203C122.449 106.549 122.91 105.75 123.346 103.691C125.792 92.0661 119.906 80.4411 109.081 75.4278C105.521 73.7809 103.849 73.4661 98.9088 73.4661C95.3244 73.4903 94.1377 73.5872 92.2487 73.9989L89.9479 74.5317L69.6768 54.2606C55.6299 40.2138 49.4299 33.8442 49.5268 33.602C50.2049 31.8825 50.6651 28.5888 50.6893 25.4888C50.6893 20.9598 50.0596 18.0778 48.1705 14.2028C45.8213 9.35905 41.583 5.04812 36.8604 2.65047C32.719 0.519211 27.1244 -0.425316 22.4987 0.180153Z" fill="#7C38EA"/>
<path d="M112.641 0.30127C111.406 0.858303 93.1688 11.8052 92.5392 12.3864C91.086 13.6942 90.8438 15.7528 91.9821 17.2786C92.3454 17.7872 92.9024 18.4411 93.1931 18.6833L93.7259 19.1677L81.5438 31.3497L69.3618 43.5317L74.5204 48.6661L79.6548 53.8247L91.8368 41.6427L104.019 29.4606L104.842 30.3567C106.441 32.0278 107.482 32.6333 108.717 32.6333C110.8 32.6333 110.97 32.4153 117.121 22.2192C124.072 10.7153 124.072 10.6911 123.854 9.23799C123.709 8.19658 123.442 7.85752 120.512 4.8544C118.744 3.06221 116.927 1.27002 116.419 0.882523C115.353 0.0106468 113.779 -0.231541 112.641 0.30127Z" fill="#7C38EA"/>
<path d="M20.6579 82.8146C3.14775 100.349 2.42118 101.124 1.57353 102.868C-1.26007 108.704 -0.218659 115.074 4.31025 119.603C8.20947 123.502 13.6587 124.858 18.8657 123.236C22.1595 122.194 22.3048 122.073 41.3407 103.037L59.311 85.0669L49.0665 74.8224L38.8462 64.6021L20.6579 82.8146ZM42.0431 80.4653C43.2782 80.9982 43.7384 81.4341 44.1743 82.645C44.5134 83.4927 44.5376 83.8318 44.2954 84.7278C44.0532 85.6724 42.8181 86.9802 32.5977 97.2247C26.3251 103.522 20.8274 108.85 20.4157 109.043C17.3157 110.521 14.1188 107.324 15.5962 104.224C16.129 103.11 38.4102 80.9255 39.4517 80.4896C40.5415 80.0294 40.9532 80.0052 42.0431 80.4653Z" fill="#7C38EA"/>
</svg>
