<svg width="26" height="26" viewBox="0 0 26 26" fill="none" xmlns="http://www.w3.org/2000/svg">
<rect width="26" height="26" fill="white"/>
<path d="M2.38662 0.081348C1.26436 0.32002 0.314746 1.27979 0.0760742 2.41221C-0.0305664 2.9251 -0.0305664 6.21572 0.0760742 6.72861C0.314746 7.87119 1.26943 8.82588 2.41201 9.06455C2.9249 9.17119 6.21553 9.17119 6.72842 9.06455C7.871 8.82588 8.82568 7.87119 9.06436 6.72861C9.171 6.21572 9.171 2.9251 9.06436 2.41221C8.82568 1.26963 7.871 0.314942 6.72842 0.0762699C6.23076 -0.0252926 2.87412 -0.0252926 2.38662 0.081348ZM6.63193 2.19385C6.73857 2.27002 6.88584 2.41729 6.95693 2.52393L7.08389 2.71182V4.57041V6.429L6.95693 6.61689C6.88584 6.72354 6.73857 6.8708 6.63193 6.94697L6.43389 7.08408H4.57021H2.70654L2.5085 6.94697C2.40186 6.8708 2.25459 6.72354 2.1835 6.61689L2.05654 6.43408L2.04131 4.69229C2.03115 3.5751 2.04639 2.87939 2.08193 2.74736C2.14287 2.50869 2.48311 2.15322 2.71162 2.08721C2.79795 2.05674 3.66631 2.0415 4.65146 2.04658L6.43389 2.05674L6.63193 2.19385Z" fill="#1B191E"/>
<path d="M4.22499 3.61063C3.98124 3.68172 3.67148 4.01688 3.60038 4.27586C3.48359 4.72782 3.66132 5.20008 4.04726 5.43875C4.33671 5.62157 4.82929 5.61141 5.11366 5.42352C5.42851 5.21532 5.56054 4.96649 5.56054 4.57039C5.56054 4.17938 5.42851 3.92547 5.1289 3.72743C4.91054 3.58016 4.49413 3.52938 4.22499 3.61063Z" fill="#1B191E"/>
<path d="M13.5586 0.13711C13.3352 0.253907 13.2539 0.335157 13.1422 0.553516C13.0152 0.797266 13 0.878516 13 1.32031V1.81797L12.3246 1.83828C11.6898 1.85352 11.634 1.86367 11.441 1.99063C11.1211 2.19883 10.9941 2.44766 10.9941 2.84883C10.9941 3.12305 11.0195 3.21445 11.1312 3.38711C11.2074 3.49883 11.3547 3.64609 11.4613 3.71211C11.634 3.82383 11.7254 3.83398 12.3297 3.84922L13 3.86953V4.77344V5.67734L12.3246 5.69766C11.6898 5.71289 11.634 5.72305 11.441 5.85C11.3293 5.92617 11.182 6.07344 11.116 6.18008L10.9941 6.37305V8.35352V10.334L11.116 10.527C11.182 10.6336 11.3293 10.7809 11.441 10.857C11.6137 10.9738 11.7051 10.9941 11.9844 10.9941C12.2637 10.9941 12.3551 10.9738 12.5277 10.857C12.6395 10.7809 12.7867 10.6336 12.8527 10.527C12.9695 10.3391 12.9746 10.2984 12.9898 9.02891L13.0051 7.72891L13.6754 7.70859C14.2746 7.69336 14.366 7.67813 14.5387 7.57148C14.6453 7.50547 14.7926 7.3582 14.8687 7.24648L15.0059 7.03828V3.86445V0.685547L14.8941 0.502735C14.7215 0.228516 14.432 0.0507817 14.1121 0.0152348C13.8785 -0.00507772 13.7973 0.0101567 13.5586 0.13711Z" fill="#1B191E"/>
<path d="M19.2461 0.081348C18.1238 0.32002 17.1742 1.27979 16.9355 2.41221C16.8797 2.68643 16.8594 3.179 16.8594 4.57041C16.8594 5.96182 16.8797 6.45439 16.9355 6.72861C17.1742 7.87119 18.1289 8.82588 19.2715 9.06455C19.7844 9.17119 23.075 9.17119 23.5879 9.06455C24.7305 8.82588 25.6852 7.87119 25.9238 6.72861C26.0305 6.21572 26.0305 2.9251 25.9238 2.41221C25.6852 1.26963 24.7305 0.314942 23.5879 0.0762699C23.0902 -0.0252926 19.7336 -0.0252926 19.2461 0.081348ZM23.4914 2.19385C23.598 2.27002 23.7453 2.41729 23.8164 2.52393L23.9434 2.71182V4.57041V6.429L23.8164 6.61689C23.7453 6.72354 23.598 6.8708 23.4914 6.94697L23.2934 7.08408H21.4297H19.566L19.368 6.94697C19.2613 6.8708 19.1141 6.72354 19.043 6.61689L18.916 6.43408L18.9008 4.69229C18.8906 3.5751 18.9059 2.87939 18.9414 2.74736C19.0023 2.50869 19.3426 2.15322 19.5711 2.08721C19.6574 2.05674 20.5258 2.0415 21.5109 2.04658L23.2934 2.05674L23.4914 2.19385Z" fill="#1B191E"/>
<path d="M21.0844 3.61063C20.8406 3.68172 20.5309 4.01688 20.4598 4.27586C20.343 4.72782 20.5207 5.20008 20.9066 5.43875C21.1961 5.62157 21.6887 5.61141 21.973 5.42352C22.2879 5.21532 22.4199 4.96649 22.4199 4.57039C22.4199 4.17938 22.2879 3.92547 21.9883 3.72743C21.7699 3.58016 21.3535 3.52938 21.0844 3.61063Z" fill="#1B191E"/>
<path d="M0.670081 10.9738C0.431409 11.0449 0.116565 11.3801 0.0505497 11.6289C0.0150028 11.766 -0.000231542 12.2738 0.00992471 13.0711L0.0251591 14.3051L0.162268 14.5082C0.370472 14.823 0.6193 14.9551 1.01539 14.9551C1.41149 14.9551 1.66032 14.823 1.86852 14.5082C1.99547 14.3152 2.00563 14.2594 2.02086 13.6297L2.04117 12.9594L2.73688 12.9391C3.39703 12.9238 3.44782 12.9137 3.64078 12.7867C3.95563 12.5785 4.08766 12.3297 4.08766 11.9336C4.08766 11.5375 3.95563 11.2887 3.64078 11.0805L3.43766 10.9434L2.13766 10.9332C1.40641 10.9281 0.766565 10.9434 0.670081 10.9738Z" fill="#1B191E"/>
<path d="M6.97726 10.9738C6.74875 11.0398 6.41359 11.3801 6.35265 11.6137C6.32218 11.7203 6.29679 12.0605 6.29679 12.3703V12.934L5.87023 12.9594C5.37257 12.9848 5.12375 13.1117 4.92062 13.4418C4.73781 13.7313 4.74797 14.2238 4.93586 14.5082C5.01203 14.6199 5.15929 14.7672 5.26593 14.8332L5.4589 14.9551L8.20617 14.9703L10.9585 14.9855L10.9737 15.5797C10.9991 16.2652 11.0753 16.4582 11.4409 16.6969C11.6136 16.8137 11.705 16.834 11.9843 16.834C12.2636 16.834 12.355 16.8137 12.5277 16.6969C12.6394 16.6207 12.7866 16.4734 12.8527 16.3668C12.9745 16.1789 12.9745 16.1535 12.9745 14.8992V13.6297L12.8374 13.4215C12.7612 13.3098 12.614 13.1625 12.5073 13.0965L12.3144 12.9746L10.3237 12.9594L8.32804 12.9441V12.3449C8.32804 11.7863 8.31789 11.7254 8.18586 11.4715C7.95734 11.0348 7.46476 10.8316 6.97726 10.9738Z" fill="#1B191E"/>
<path d="M15.7016 10.9738C15.4629 11.0449 15.148 11.3801 15.0769 11.639C14.9601 12.091 15.1379 12.5633 15.5238 12.8019C15.7117 12.9238 15.7371 12.9238 17.2555 12.939L18.7891 12.9543V14.5691V16.189L18.9312 16.4582C19.043 16.6765 19.1242 16.7578 19.3476 16.8746C19.5863 17.0015 19.6676 17.0168 19.9012 16.9965C20.2211 16.9609 20.5105 16.7832 20.6832 16.509C20.7797 16.3465 20.7949 16.2449 20.8101 15.6558L20.8305 14.9906L21.5262 14.9703C22.1863 14.9551 22.2371 14.9449 22.4301 14.8179C22.7449 14.6097 22.8769 14.3609 22.8769 13.9648C22.8769 13.5687 22.7449 13.3199 22.4301 13.1117C22.2371 12.9847 22.1863 12.9746 21.5262 12.9593L20.8305 12.939L20.8101 12.2687C20.7949 11.639 20.7848 11.5832 20.6578 11.3902C20.5816 11.2785 20.4344 11.1312 20.3277 11.0652L20.1348 10.9433L18.0019 10.9332C16.7426 10.9281 15.8031 10.9433 15.7016 10.9738Z" fill="#1B191E"/>
<path d="M24.6391 10.9739C24.3953 11.045 24.0855 11.3802 24.0144 11.6391C23.8976 12.0911 24.0754 12.5634 24.4613 12.802C24.7508 12.9848 25.2434 12.9747 25.5277 12.7868C25.8426 12.5786 25.9746 12.3298 25.9746 11.9337C25.9746 11.5427 25.8426 11.2888 25.543 11.0907C25.3246 10.9434 24.9082 10.8927 24.6391 10.9739Z" fill="#1B191E"/>
<path d="M15.7016 15.0363C15.473 15.1023 15.1531 15.4426 15.0871 15.6762C15.0566 15.7828 15.0312 16.316 15.0312 16.8645V17.8598L14.6047 17.8852C14.2492 17.9055 14.1426 17.9309 13.975 18.0375C13.6652 18.2457 13.5332 18.4945 13.5332 18.8906C13.5332 19.2867 13.6652 19.5355 13.9801 19.7438L14.1883 19.8809H15.2852H16.382L16.5902 19.7438C16.702 19.6676 16.8492 19.5203 16.9152 19.4137L17.0371 19.2207V17.4434V15.666L16.9152 15.473C16.6766 15.0871 16.1484 14.8992 15.7016 15.0363Z" fill="#1B191E"/>
<path d="M24.6391 15.0363C24.4105 15.1023 24.0906 15.4426 24.0246 15.6762C23.9941 15.7828 23.9687 16.3211 23.9687 16.8695V17.8699L22.8871 17.8852C21.8105 17.9004 21.8004 17.9004 21.5973 18.0375C21.2824 18.2457 21.1504 18.4945 21.1504 18.8906C21.1504 19.2867 21.2824 19.5355 21.5973 19.7438L21.8055 19.8809H23.5625H25.3195L25.5277 19.7438C25.6395 19.6676 25.7867 19.5203 25.8527 19.4137L25.9746 19.2207V17.4434V15.666L25.8527 15.473C25.6141 15.0871 25.0859 14.8992 24.6391 15.0363Z" fill="#1B191E"/>
<path d="M2.38662 16.9407C1.26436 17.1794 0.314746 18.1392 0.0760742 19.2716C-0.0305664 19.7845 -0.0305664 23.0751 0.0760742 23.588C0.314746 24.7306 1.26943 25.6853 2.41201 25.9239C2.9249 26.0306 6.21553 26.0306 6.72842 25.9239C7.871 25.6853 8.82568 24.7306 9.06436 23.588C9.12021 23.3138 9.14053 22.8212 9.14053 21.4298C9.14053 19.3985 9.11006 19.1649 8.80537 18.5353C8.42451 17.7583 7.5917 17.1185 6.72842 16.9356C6.23076 16.8341 2.87412 16.8341 2.38662 16.9407ZM6.63193 19.0532C6.73857 19.1294 6.88584 19.2767 6.95693 19.3833L7.08389 19.5712V21.4298V23.2884L6.95693 23.4763C6.88584 23.5829 6.73857 23.7302 6.63193 23.8063L6.43389 23.9435H4.57021H2.70654L2.5085 23.8063C2.40186 23.7302 2.25459 23.5829 2.1835 23.4763L2.05654 23.2935L2.04131 21.5517C2.03115 20.4345 2.04639 19.7388 2.08193 19.6067C2.14287 19.3681 2.48311 19.0126 2.71162 18.9466C2.79795 18.9161 3.66631 18.9009 4.65146 18.906L6.43389 18.9161L6.63193 19.0532Z" fill="#1B191E"/>
<path d="M4.22499 20.47C3.98124 20.5411 3.67148 20.8763 3.60038 21.1352C3.48359 21.5872 3.66132 22.0595 4.04726 22.2981C4.33671 22.4809 4.82929 22.4708 5.11366 22.2829C5.42851 22.0747 5.56054 21.8259 5.56054 21.4298C5.56054 21.0388 5.42851 20.7848 5.1289 20.5868C4.91054 20.4395 4.49413 20.3888 4.22499 20.47Z" fill="#1B191E"/>
<path d="M11.6388 19.9621C11.4002 20.0332 11.0853 20.3684 11.0193 20.6172C10.9838 20.7543 10.9685 21.2621 10.9787 22.0594L10.9939 23.2934L11.131 23.4965C11.2072 23.6082 11.3545 23.7555 11.4611 23.8215C11.6338 23.9281 11.7252 23.9434 12.3244 23.9586L12.9896 23.9789L13.0099 24.6441C13.0252 25.2434 13.0404 25.3348 13.147 25.5074C13.2131 25.6141 13.3603 25.7613 13.472 25.8375L13.6802 25.9746H15.031H16.3818L16.59 25.8375C16.9099 25.6293 17.0369 25.3805 17.0369 24.9793C17.0369 24.7051 17.0115 24.6137 16.8998 24.441C16.8236 24.3293 16.6763 24.182 16.5697 24.116C16.397 24.0094 16.3056 23.9941 15.7064 23.9789L15.0412 23.9586L15.0209 23.2934C15.0056 22.6941 14.9904 22.6027 14.8838 22.4301C14.8177 22.3234 14.6705 22.1762 14.5588 22.1C14.3658 21.973 14.3099 21.9629 13.6802 21.9477L13.0099 21.9273L12.9896 21.2621C12.9744 20.6629 12.9591 20.5715 12.8525 20.3988C12.6138 20.0129 12.0857 19.825 11.6388 19.9621Z" fill="#1B191E"/>
<path d="M18.2406 20.9777C17.9969 21.0488 17.6871 21.384 17.616 21.643C17.4992 22.0949 17.6769 22.5672 18.0629 22.8059C18.2355 22.9176 18.3117 22.9277 18.8449 22.9277C19.3984 22.9277 19.4441 22.9176 19.6371 22.7906C19.9519 22.5824 20.084 22.3336 20.084 21.9375C20.084 21.5414 19.9519 21.2926 19.6371 21.0844C19.4543 20.9625 19.3832 20.9473 18.9211 20.9371C18.6367 20.932 18.332 20.9473 18.2406 20.9777Z" fill="#1B191E"/>
<path d="M22.8109 21.9934C22.5824 22.0594 22.2625 22.3996 22.1965 22.6332C22.166 22.7398 22.1406 23.0801 22.1406 23.3949V23.9637L20.9574 23.9789L19.7691 23.9941L19.566 24.1313C19.2461 24.3395 19.1191 24.5883 19.1191 24.9895C19.1191 25.2637 19.1445 25.3551 19.2562 25.5277C19.3324 25.6395 19.4797 25.7867 19.5863 25.8527L19.7793 25.9746H22.5469H25.3145L25.5074 25.8527C25.6141 25.7867 25.7613 25.6395 25.8375 25.5277C25.9492 25.3551 25.9746 25.2637 25.9746 24.9895C25.9746 24.5883 25.8477 24.3395 25.5277 24.1313C25.3398 24.0094 25.2687 23.9941 24.7508 23.9738L24.182 23.9586L24.1617 23.2883C24.1465 22.6941 24.1312 22.6027 24.0246 22.4301C23.7859 22.0441 23.2578 21.8563 22.8109 21.9934Z" fill="#1B191E"/>
</svg>
