<svg width="32" height="32" viewBox="0 0 32 32" fill="none" xmlns="http://www.w3.org/2000/svg">
<path d="M0 16C0 7.16344 7.16344 0 16 0V0C24.8366 0 32 7.16344 32 16V16C32 24.8366 24.8366 32 16 32V32C7.16344 32 0 24.8366 0 16V16Z" fill="url(#paint0_linear_8132_26346)"/>
<path d="M9.28072 10.8422C9.15469 10.8422 9.03596 10.8639 8.92358 10.9086L11.1744 13.2259L13.4502 15.5847L13.4917 15.6345L13.5581 15.701L13.6246 15.7674L13.7575 15.9086L15.7093 17.9103C15.7418 17.9305 15.836 18.0177 15.9095 18.0545C16.0043 18.1019 16.107 18.1455 16.2129 18.1493C16.3272 18.1534 16.444 18.1207 16.5468 18.0706C16.6238 18.0332 16.658 17.9795 16.7475 17.9103L19.0066 15.5764L21.2907 13.2259L23.4917 10.9584C23.3504 10.8819 23.1939 10.8422 23.0266 10.8422H9.28072ZM8.59135 11.1246C8.35132 11.352 8.20099 11.6939 8.20099 12.0797V19.6877C8.20099 20.0001 8.30132 20.2838 8.46677 20.5016L8.78238 20.2026L11.1329 17.9186L13.2176 15.9003L13.1761 15.8505L10.892 13.5L8.60797 11.1412L8.59135 11.1246ZM23.7907 11.1993L21.5648 13.5L19.289 15.8505L19.2475 15.892L21.4153 17.9933L23.7658 20.2774L23.907 20.4103C24.0335 20.2072 24.1063 19.9571 24.1063 19.6877V12.0797C24.1063 11.7357 23.9871 11.4238 23.7907 11.1993ZM13.4834 16.1744L11.407 18.1927L9.04816 20.4767L8.74916 20.7674C8.90679 20.8689 9.08618 20.9335 9.28072 20.9335H23.0266C23.2604 20.9335 23.4726 20.8435 23.6495 20.701L23.5 20.5515L21.1412 18.2674L18.9734 16.1744L17.0216 18.1844C16.9159 18.2544 16.8454 18.3321 16.7422 18.3798C16.5762 18.4565 16.3943 18.5215 16.2114 18.5187C16.028 18.5159 15.8482 18.4441 15.6836 18.3632C15.601 18.3225 15.557 18.2821 15.4601 18.201L13.4834 16.1744Z" fill="white"/>
<defs>
<linearGradient id="paint0_linear_8132_26346" x1="16.224" y1="31.8716" x2="16.2552" y2="0.386315" gradientUnits="userSpaceOnUse">
<stop stop-color="#70EFFF"/>
<stop offset="1" stop-color="#5770FF"/>
</linearGradient>
</defs>
</svg>
