<svg width="32" height="32" viewBox="0 0 32 32" fill="none" xmlns="http://www.w3.org/2000/svg">
<ellipse cx="15.9998" cy="16" rx="15.9998" ry="16" fill="white"/>
<g clip-path="url(#clip0_8142_26469)">
<path d="M20.9862 12.7226C20.636 12.5225 20.1857 12.5225 19.7854 12.7226L16.9834 14.3738L15.0821 15.4245L12.3302 17.0757C11.9799 17.2759 11.5296 17.2759 11.1293 17.0757L8.97783 15.7748C8.62758 15.5747 8.37741 15.1744 8.37741 14.7241V12.2223C8.37741 11.822 8.57755 11.4217 8.97783 11.1715L11.1293 9.92064C11.4796 9.7205 11.9299 9.7205 12.3302 9.92064L14.4817 11.2216C14.8319 11.4217 15.0821 11.822 15.0821 12.2723V13.9235L16.9834 12.8227V11.1215C16.9834 10.7212 16.7833 10.3209 16.383 10.0707L12.3802 7.71908C12.03 7.51893 11.5796 7.51893 11.1794 7.71908L7.07649 10.1208C6.67621 10.3209 6.47607 10.7212 6.47607 11.1215V15.8248C6.47607 16.2251 6.67621 16.6254 7.07649 16.8756L11.1293 19.2273C11.4796 19.4274 11.9299 19.4274 12.3302 19.2273L15.0821 17.6261L16.9834 16.5253L19.7354 14.9242C20.0856 14.7241 20.5359 14.7241 20.9362 14.9242L23.0877 16.1751C23.438 16.3752 23.6881 16.7755 23.6881 17.2258V19.7276C23.6881 20.1279 23.488 20.5282 23.0877 20.7784L20.9862 22.0292C20.636 22.2294 20.1857 22.2294 19.7854 22.0292L17.6339 20.7784C17.2836 20.5782 17.0335 20.1779 17.0335 19.7276V18.1265L15.1321 19.2273V20.8784C15.1321 21.2787 15.3323 21.679 15.7326 21.9292L19.7854 24.2808C20.1356 24.481 20.586 24.481 20.9862 24.2808L25.0391 21.9292C25.3893 21.729 25.6395 21.3287 25.6395 20.8784V16.125C25.6395 15.7248 25.4394 15.3245 25.0391 15.0743L20.9862 12.7226Z" fill="#8247E5"/>
</g>
<defs>
<clipPath id="clip0_8142_26469">
<rect width="19.2135" height="16.7619" fill="white" transform="translate(6.47607 7.61902)"/>
</clipPath>
</defs>
</svg>
