<svg width="24" height="24" viewBox="0 0 24 24" fill="none" xmlns="http://www.w3.org/2000/svg">
<path d="M16.73 13.3301C16.73 11.9401 17.37 10.9301 18.61 10.1401C17.9 9.13006 16.85 8.60007 15.46 8.49007C14.11 8.38007 12.65 9.24007 12.12 9.24007C11.56 9.24007 10.28 8.53006 9.27002 8.53006C7.17002 8.57006 4.96002 10.1801 4.96002 13.5201C4.96002 14.5001 5.11002 15.5101 5.49002 16.5601C5.98002 17.9501 7.70002 21.3201 9.50002 21.2501C10.44 21.2501 11.11 20.5701 12.35 20.5701C13.55 20.5701 14.15 21.2501 15.2 21.2501C17.04 21.2501 18.61 18.1701 19.06 16.7901C16.61 15.6201 16.73 13.4101 16.73 13.3301Z" stroke="#7C38EA" stroke-width="1.5" stroke-linecap="round" stroke-linejoin="round"/>
<path d="M14.44 5.65004C15.2 4.89004 15.43 3.46004 14.8 2.95004C14.23 2.48004 13.07 2.90004 12.45 3.56004C11.78 4.28004 11.47 5.59005 12.06 6.13005C12.62 6.63005 13.81 6.29004 14.44 5.65004Z" stroke="#7C38EA" stroke-width="1.5" stroke-linecap="round" stroke-linejoin="round"/>
</svg>
