<svg width="25" height="24" viewBox="0 0 25 24" fill="none" xmlns="http://www.w3.org/2000/svg">
<path d="M18.4201 8.16992H6.08008C5.67008 8.16992 5.33008 8.49992 5.33008 8.91992V18.1699C5.33008 20.2799 7.05007 21.9999 9.17007 21.9999H15.3301C17.4501 21.9999 19.1701 20.2799 19.1701 18.1699V8.91992C19.1701 8.49992 18.8301 8.16992 18.4201 8.16992ZM14.8401 15.58C15.1301 15.87 15.1301 16.35 14.8401 16.64C14.6901 16.79 14.5001 16.8599 14.3101 16.8599C14.1101 16.8599 13.9201 16.79 13.7801 16.64L12.2501 15.1199L10.7301 16.64C10.5801 16.79 10.3901 16.8599 10.1901 16.8599C10.0001 16.8599 9.81008 16.79 9.66008 16.64C9.37008 16.35 9.37008 15.87 9.66008 15.58L11.1901 14.0599L9.66008 12.53C9.37008 12.24 9.37008 11.7599 9.66008 11.4699C9.96008 11.1799 10.4301 11.1799 10.7301 11.4699L12.2501 12.9999L13.7801 11.4699C14.0701 11.1799 14.5401 11.1799 14.8401 11.4699C15.1301 11.7599 15.1301 12.24 14.8401 12.53L13.3101 14.0599L14.8401 15.58Z" fill="#29262D"/>
<path d="M20.4703 5.08002H16.0103C15.6603 3.33002 14.1103 2 12.2503 2C10.3903 2 8.84028 3.33002 8.49028 5.08002H4.03027C3.61027 5.08002 3.28027 5.42002 3.28027 5.83002C3.28027 6.25002 3.61027 6.58002 4.03027 6.58002H20.4703C20.8903 6.58002 21.2203 6.25002 21.2203 5.83002C21.2203 5.42002 20.8903 5.08002 20.4703 5.08002Z" fill="#29262D"/>
</svg>
