<svg width="32" height="32" viewBox="0 0 32 32" fill="none" xmlns="http://www.w3.org/2000/svg">
<rect width="32" height="32" fill="white"/>
<path d="M2.9373 0.0992184C1.55605 0.392968 0.387305 1.57422 0.0935547 2.96797C-0.0376953 3.59922 -0.0376953 7.64922 0.0935547 8.28047C0.387305 9.68672 1.5623 10.8617 2.96855 11.1555C3.5998 11.2867 7.6498 11.2867 8.28105 11.1555C9.6873 10.8617 10.8623 9.68672 11.1561 8.28047C11.2873 7.64922 11.2873 3.59922 11.1561 2.96797C10.8623 1.56172 9.6873 0.386719 8.28105 0.0929689C7.66855 -0.0320311 3.5373 -0.0320311 2.9373 0.0992184ZM8.1623 2.69922C8.29355 2.79297 8.4748 2.97422 8.5623 3.10547L8.71855 3.33672V5.62422V7.91172L8.5623 8.14297C8.4748 8.27422 8.29355 8.45547 8.1623 8.54922L7.91855 8.71797H5.6248H3.33105L3.0873 8.54922C2.95605 8.45547 2.7748 8.27422 2.6873 8.14297L2.53105 7.91797L2.5123 5.77422C2.4998 4.39922 2.51855 3.54297 2.5623 3.38047C2.6373 3.08672 3.05605 2.64922 3.3373 2.56797C3.44355 2.53047 4.5123 2.51172 5.7248 2.51797L7.91855 2.53047L8.1623 2.69922Z" fill="#7C38EA"/>
<path d="M5.20007 4.44355C4.90007 4.53105 4.51882 4.94355 4.43132 5.2623C4.28757 5.81855 4.50632 6.3998 4.98132 6.69355C5.33757 6.91855 5.94382 6.90605 6.29382 6.6748C6.68132 6.41855 6.84382 6.1123 6.84382 5.6248C6.84382 5.14355 6.68132 4.83105 6.31257 4.5873C6.04382 4.40605 5.53132 4.34355 5.20007 4.44355Z" fill="#7C38EA"/>
<path d="M16.6875 0.168751C16.4125 0.312501 16.3125 0.4125 16.175 0.681251C16.0187 0.981251 16 1.08125 16 1.625V2.2375L15.1688 2.2625C14.3875 2.28125 14.3188 2.29375 14.0813 2.45C13.6875 2.70625 13.5312 3.0125 13.5312 3.50625C13.5312 3.84375 13.5625 3.95625 13.7 4.16875C13.7938 4.30625 13.975 4.4875 14.1062 4.56875C14.3188 4.70625 14.4313 4.71875 15.175 4.7375L16 4.7625V5.875V6.9875L15.1688 7.0125C14.3875 7.03125 14.3188 7.04375 14.0813 7.2C13.9437 7.29375 13.7625 7.475 13.6813 7.60625L13.5312 7.84375V10.2813V12.7188L13.6813 12.9563C13.7625 13.0875 13.9437 13.2688 14.0813 13.3625C14.2937 13.5063 14.4062 13.5312 14.75 13.5312C15.0938 13.5312 15.2063 13.5063 15.4188 13.3625C15.5563 13.2688 15.7375 13.0875 15.8188 12.9563C15.9625 12.725 15.9688 12.675 15.9875 11.1125L16.0063 9.5125L16.8312 9.4875C17.5687 9.46875 17.6813 9.45 17.8938 9.31875C18.025 9.2375 18.2063 9.05625 18.3 8.91875L18.4688 8.6625V4.75625V0.843751L18.3313 0.618751C18.1188 0.281251 17.7625 0.062501 17.3688 0.0187511C17.0812 -0.00624943 16.9813 0.0125008 16.6875 0.168751Z" fill="#7C38EA"/>
<path d="M23.6875 0.0992184C22.3062 0.392968 21.1375 1.57422 20.8438 2.96797C20.775 3.30547 20.75 3.91172 20.75 5.62422C20.75 7.33672 20.775 7.94297 20.8438 8.28047C21.1375 9.68672 22.3125 10.8617 23.7188 11.1555C24.35 11.2867 28.4 11.2867 29.0312 11.1555C30.4375 10.8617 31.6125 9.68672 31.9062 8.28047C32.0375 7.64922 32.0375 3.59922 31.9062 2.96797C31.6125 1.56172 30.4375 0.386719 29.0312 0.0929689C28.4188 -0.0320311 24.2875 -0.0320311 23.6875 0.0992184ZM28.9125 2.69922C29.0437 2.79297 29.225 2.97422 29.3125 3.10547L29.4688 3.33672V5.62422V7.91172L29.3125 8.14297C29.225 8.27422 29.0437 8.45547 28.9125 8.54922L28.6688 8.71797H26.375H24.0812L23.8375 8.54922C23.7062 8.45547 23.525 8.27422 23.4375 8.14297L23.2812 7.91797L23.2625 5.77422C23.25 4.39922 23.2687 3.54297 23.3125 3.38047C23.3875 3.08672 23.8063 2.64922 24.0875 2.56797C24.1938 2.53047 25.2625 2.51172 26.475 2.51797L28.6688 2.53047L28.9125 2.69922Z" fill="#7C38EA"/>
<path d="M25.9501 4.44355C25.6501 4.53105 25.2688 4.94355 25.1813 5.2623C25.0376 5.81855 25.2563 6.3998 25.7313 6.69355C26.0876 6.91855 26.6938 6.90605 27.0438 6.6748C27.4313 6.41855 27.5938 6.1123 27.5938 5.6248C27.5938 5.14355 27.4313 4.83105 27.0626 4.5873C26.7938 4.40605 26.2813 4.34355 25.9501 4.44355Z" fill="#7C38EA"/>
<path d="M0.825091 13.5063C0.531341 13.5938 0.143841 14.0063 0.0625906 14.3125C0.0188406 14.4813 9.06261e-05 15.1063 0.0125906 16.0875L0.0313406 17.6063L0.200091 17.8563C0.456341 18.2438 0.762591 18.4062 1.25009 18.4062C1.73759 18.4062 2.04384 18.2438 2.30009 17.8563C2.45634 17.6188 2.46884 17.55 2.48759 16.775L2.51259 15.95L3.36884 15.925C4.18134 15.9063 4.24384 15.8938 4.48134 15.7375C4.86884 15.4813 5.03134 15.175 5.03134 14.6875C5.03134 14.2 4.86884 13.8938 4.48134 13.6375L4.23134 13.4688L2.63134 13.4563C1.73134 13.45 0.943841 13.4688 0.825091 13.5063Z" fill="#7C38EA"/>
<path d="M8.5877 13.5063C8.30645 13.5875 7.89395 14.0063 7.81895 14.2938C7.78145 14.425 7.7502 14.8438 7.7502 15.225V15.9188L7.2252 15.95C6.6127 15.9813 6.30645 16.1375 6.05645 16.5438C5.83145 16.9 5.84395 17.5063 6.0752 17.8563C6.16895 17.9938 6.3502 18.175 6.48145 18.2563L6.71895 18.4063L10.1002 18.425L13.4877 18.4438L13.5065 19.175C13.5377 20.0188 13.6315 20.2563 14.0815 20.55C14.294 20.6938 14.4065 20.7188 14.7502 20.7188C15.094 20.7188 15.2065 20.6938 15.419 20.55C15.5564 20.4563 15.7377 20.275 15.8189 20.1438C15.969 19.9125 15.969 19.8813 15.969 18.3375V16.775L15.8002 16.5188C15.7065 16.3813 15.5252 16.2 15.394 16.1188L15.1565 15.9688L12.7065 15.95L10.2502 15.9313V15.1938C10.2502 14.5063 10.2377 14.4313 10.0752 14.1188C9.79395 13.5813 9.1877 13.3313 8.5877 13.5063Z" fill="#7C38EA"/>
<path d="M19.3251 13.5041C19.0313 13.5916 18.6438 14.0041 18.5563 14.3229C18.4126 14.8791 18.6313 15.4604 19.1063 15.7541C19.3376 15.9041 19.3688 15.9041 21.2376 15.9229L23.1251 15.9416V17.9291V19.9229L23.3001 20.2541C23.4376 20.5229 23.5376 20.6229 23.8126 20.7666C24.1063 20.9229 24.2063 20.9416 24.4938 20.9166C24.8876 20.8729 25.2438 20.6541 25.4563 20.3166C25.5751 20.1166 25.5938 19.9916 25.6126 19.2666L25.6376 18.4479L26.4938 18.4229C27.3063 18.4041 27.3688 18.3916 27.6063 18.2354C27.9938 17.9791 28.1563 17.6729 28.1563 17.1854C28.1563 16.6979 27.9938 16.3916 27.6063 16.1354C27.3688 15.9791 27.3063 15.9666 26.4938 15.9479L25.6376 15.9229L25.6126 15.0979C25.5938 14.3229 25.5813 14.2541 25.4251 14.0166C25.3313 13.8791 25.1501 13.6979 25.0188 13.6166L24.7813 13.4666L22.1563 13.4541C20.6063 13.4479 19.4501 13.4666 19.3251 13.5041Z" fill="#7C38EA"/>
<path d="M30.3251 13.506C30.0251 13.5935 29.6438 14.006 29.5563 14.3248C29.4126 14.881 29.6313 15.4623 30.1063 15.756C30.4626 15.981 31.0688 15.9685 31.4188 15.7373C31.8063 15.481 31.9688 15.1748 31.9688 14.6873C31.9688 14.206 31.8063 13.8935 31.4376 13.6498C31.1688 13.4685 30.6563 13.406 30.3251 13.506Z" fill="#7C38EA"/>
<path d="M19.325 18.5063C19.0438 18.5875 18.65 19.0063 18.5688 19.2938C18.5312 19.425 18.5 20.0813 18.5 20.7563V21.9813L17.975 22.0125C17.5375 22.0375 17.4062 22.0688 17.2 22.2C16.8188 22.4563 16.6562 22.7625 16.6562 23.25C16.6562 23.7375 16.8188 24.0438 17.2063 24.3L17.4625 24.4688H18.8125H20.1625L20.4188 24.3C20.5563 24.2063 20.7375 24.025 20.8187 23.8938L20.9688 23.6563V21.4688V19.2813L20.8187 19.0438C20.525 18.5688 19.875 18.3375 19.325 18.5063Z" fill="#7C38EA"/>
<path d="M30.325 18.5063C30.0438 18.5875 29.65 19.0063 29.5688 19.2938C29.5312 19.425 29.5 20.0875 29.5 20.7625V21.9938L28.1688 22.0125C26.8438 22.0313 26.8313 22.0313 26.5813 22.2C26.1938 22.4563 26.0312 22.7625 26.0312 23.25C26.0312 23.7375 26.1938 24.0438 26.5813 24.3L26.8375 24.4688H29H31.1625L31.4188 24.3C31.5563 24.2063 31.7375 24.025 31.8187 23.8938L31.9688 23.6563V21.4688V19.2813L31.8187 19.0438C31.525 18.5688 30.875 18.3375 30.325 18.5063Z" fill="#7C38EA"/>
<path d="M2.9373 20.8492C1.55605 21.143 0.387305 22.3242 0.0935547 23.718C-0.0376953 24.3492 -0.0376953 28.3992 0.0935547 29.0305C0.387305 30.4367 1.5623 31.6117 2.96855 31.9055C3.5998 32.0367 7.6498 32.0367 8.28105 31.9055C9.6873 31.6117 10.8623 30.4367 11.1561 29.0305C11.2248 28.693 11.2498 28.0867 11.2498 26.3742C11.2498 23.8742 11.2123 23.5867 10.8373 22.8117C10.3686 21.8555 9.34355 21.068 8.28105 20.843C7.66855 20.718 3.5373 20.718 2.9373 20.8492ZM8.1623 23.4492C8.29356 23.543 8.4748 23.7242 8.5623 23.8555L8.71855 24.0867V26.3742V28.6617L8.5623 28.893C8.4748 29.0242 8.29356 29.2055 8.1623 29.2992L7.91855 29.468H5.6248H3.33105L3.0873 29.2992C2.95605 29.2055 2.7748 29.0242 2.6873 28.893L2.53105 28.668L2.5123 26.5242C2.4998 25.1492 2.51855 24.293 2.5623 24.1305C2.6373 23.8367 3.05605 23.3992 3.3373 23.318C3.44355 23.2805 4.5123 23.2617 5.7248 23.268L7.91855 23.2805L8.1623 23.4492Z" fill="#7C38EA"/>
<path d="M5.20007 25.1935C4.90007 25.281 4.51882 25.6935 4.43132 26.0123C4.28757 26.5685 4.50632 27.1498 4.98132 27.4435C5.33757 27.6685 5.94382 27.656 6.29382 27.4248C6.68132 27.1685 6.84382 26.8623 6.84382 26.3748C6.84382 25.8935 6.68132 25.581 6.31257 25.3373C6.04382 25.156 5.53132 25.0935 5.20007 25.1935Z" fill="#7C38EA"/>
<path d="M14.3251 24.5688C14.0313 24.6563 13.6438 25.0688 13.5626 25.375C13.5188 25.5438 13.5001 26.1688 13.5126 27.15L13.5313 28.6688L13.7001 28.9188C13.7938 29.0563 13.9751 29.2375 14.1063 29.3188C14.3188 29.45 14.4313 29.4688 15.1688 29.4875L15.9876 29.5125L16.0126 30.3313C16.0313 31.0688 16.0501 31.1813 16.1813 31.3938C16.2626 31.525 16.4438 31.7063 16.5813 31.8L16.8376 31.9688H18.5001H20.1626L20.4188 31.8C20.8126 31.5438 20.9688 31.2375 20.9688 30.7438C20.9688 30.4063 20.9376 30.2938 20.8001 30.0813C20.7063 29.9438 20.5251 29.7625 20.3938 29.6813C20.1813 29.55 20.0688 29.5313 19.3313 29.5125L18.5126 29.4875L18.4876 28.6688C18.4688 27.9313 18.4501 27.8188 18.3188 27.6063C18.2376 27.475 18.0563 27.2938 17.9188 27.2C17.6813 27.0438 17.6126 27.0313 16.8376 27.0125L16.0126 26.9875L15.9876 26.1688C15.9688 25.4313 15.9501 25.3188 15.8188 25.1063C15.5251 24.6313 14.8751 24.4 14.3251 24.5688Z" fill="#7C38EA"/>
<path d="M22.4501 25.8187C22.1501 25.9062 21.7688 26.3188 21.6813 26.6375C21.5376 27.1938 21.7563 27.775 22.2313 28.0687C22.4438 28.2062 22.5376 28.2188 23.1938 28.2188C23.8751 28.2188 23.9313 28.2062 24.1688 28.05C24.5563 27.7937 24.7188 27.4875 24.7188 27C24.7188 26.5125 24.5563 26.2062 24.1688 25.95C23.9438 25.8 23.8563 25.7812 23.2876 25.7687C22.9376 25.7625 22.5626 25.7812 22.4501 25.8187Z" fill="#7C38EA"/>
<path d="M28.075 27.0688C27.7938 27.15 27.4 27.5688 27.3188 27.8563C27.2812 27.9875 27.25 28.4063 27.25 28.7938V29.4938L25.7938 29.5125L24.3313 29.5313L24.0813 29.7C23.6875 29.9563 23.5312 30.2625 23.5312 30.7563C23.5312 31.0938 23.5625 31.2063 23.7 31.4188C23.7938 31.5563 23.975 31.7375 24.1062 31.8188L24.3438 31.9688H27.75H31.1562L31.3938 31.8188C31.525 31.7375 31.7063 31.5563 31.8 31.4188C31.9375 31.2063 31.9688 31.0938 31.9688 30.7563C31.9688 30.2625 31.8125 29.9563 31.4188 29.7C31.1875 29.55 31.1 29.5313 30.4625 29.5063L29.7625 29.4875L29.7375 28.6625C29.7188 27.9313 29.7 27.8188 29.5687 27.6063C29.275 27.1313 28.625 26.9 28.075 27.0688Z" fill="#7C38EA"/>
</svg>
