<svg width="24" height="24" viewBox="0 0 24 24" fill="none" xmlns="http://www.w3.org/2000/svg">
<path d="M18.1701 8.16992H5.83008C5.42008 8.16992 5.08008 8.49992 5.08008 8.91992V18.1699C5.08008 20.2799 6.80007 21.9999 8.92007 21.9999H15.0801C17.2001 21.9999 18.9201 20.2799 18.9201 18.1699V8.91992C18.9201 8.49992 18.5801 8.16992 18.1701 8.16992ZM14.5901 15.58C14.8801 15.87 14.8801 16.35 14.5901 16.64C14.4401 16.79 14.2501 16.8599 14.0601 16.8599C13.8601 16.8599 13.6701 16.79 13.5301 16.64L12.0001 15.1199L10.4801 16.64C10.3301 16.79 10.1401 16.8599 9.94008 16.8599C9.75008 16.8599 9.56008 16.79 9.41008 16.64C9.12008 16.35 9.12008 15.87 9.41008 15.58L10.9401 14.0599L9.41008 12.53C9.12008 12.24 9.12008 11.7599 9.41008 11.4699C9.71008 11.1799 10.1801 11.1799 10.4801 11.4699L12.0001 12.9999L13.5301 11.4699C13.8201 11.1799 14.2901 11.1799 14.5901 11.4699C14.8801 11.7599 14.8801 12.24 14.5901 12.53L13.0601 14.0599L14.5901 15.58Z" fill="#29262D"/>
<path d="M20.22 5.08002H15.76C15.41 3.33002 13.86 2 12 2C10.14 2 8.59004 3.33002 8.24004 5.08002H3.78003C3.36003 5.08002 3.03003 5.42002 3.03003 5.83002C3.03003 6.25002 3.36003 6.58002 3.78003 6.58002H20.22C20.64 6.58002 20.97 6.25002 20.97 5.83002C20.97 5.42002 20.64 5.08002 20.22 5.08002Z" fill="#29262D"/>
</svg>
