<svg width="18" height="18" viewBox="0 0 18 18" fill="none" xmlns="http://www.w3.org/2000/svg">
<path d="M11.0001 13.6656C11.0001 13.5231 11.0526 13.3806 11.1651 13.2681L15.3202 9.11311L11.1651 4.95813C10.9476 4.74063 10.9476 4.38062 11.1651 4.16313C11.3827 3.94563 11.7427 3.94563 11.9602 4.16313L16.5127 8.71561C16.7302 8.93311 16.7302 9.29311 16.5127 9.51061L11.9602 14.0631C11.7427 14.2806 11.3827 14.2806 11.1651 14.0631C11.0526 13.9581 11.0001 13.8081 11.0001 13.6656Z" fill="#7C38EA"/>
<path d="M2.12703 9.06396C2.12703 8.75646 2.38203 8.50146 2.68953 8.50146L15.312 8.50146C15.6195 8.50146 15.8745 8.75646 15.8745 9.06396C15.8745 9.37146 15.6195 9.62646 15.312 9.62646L2.68953 9.62646C2.38203 9.62646 2.12703 9.37146 2.12703 9.06396Z" fill="#7C38EA"/>
</svg>
