<svg width="28" height="28" viewBox="0 0 28 28" fill="none" xmlns="http://www.w3.org/2000/svg">
<path d="M8.0033 5.6117V3.20837" stroke="#9F98AA" stroke-width="1.75" stroke-linecap="round" stroke-linejoin="round"/>
<path d="M19.9967 5.6117V3.20837" stroke="#9F98AA" stroke-width="1.75" stroke-linecap="round" stroke-linejoin="round"/>
<path d="M21.0583 4.41003H6.94165C4.87665 4.41003 3.20831 6.07836 3.20831 8.14336V21.07C3.20831 23.135 4.87665 24.8034 6.94165 24.8034H21.07C23.135 24.8034 24.8033 23.135 24.8033 21.07V8.14336C24.7916 6.07836 23.1233 4.41003 21.0583 4.41003Z" stroke="#9F98AA" stroke-width="1.75" stroke-linecap="round" stroke-linejoin="round"/>
<path d="M3.20831 9.21667H24.7916" stroke="#9F98AA" stroke-width="1.75" stroke-linecap="round" stroke-linejoin="round"/>
<path d="M21 14C21.6443 14 22.1666 13.4776 22.1666 12.8333C22.1666 12.189 21.6443 11.6666 21 11.6666C20.3556 11.6666 19.8333 12.189 19.8333 12.8333C19.8333 13.4776 20.3556 14 21 14Z" fill="#9F98AA"/>
<path d="M16.3334 14C16.9777 14 17.5 13.4776 17.5 12.8333C17.5 12.189 16.9777 11.6666 16.3334 11.6666C15.689 11.6666 15.1667 12.189 15.1667 12.8333C15.1667 13.4776 15.689 14 16.3334 14Z" fill="#9F98AA"/>
<path d="M11.6667 14C12.311 14 12.8333 13.4776 12.8333 12.8333C12.8333 12.189 12.311 11.6666 11.6667 11.6666C11.0223 11.6666 10.5 12.189 10.5 12.8333C10.5 13.4776 11.0223 14 11.6667 14Z" fill="#9F98AA"/>
<path d="M6.99998 14C7.64431 14 8.16665 13.4776 8.16665 12.8333C8.16665 12.189 7.64431 11.6666 6.99998 11.6666C6.35565 11.6666 5.83331 12.189 5.83331 12.8333C5.83331 13.4776 6.35565 14 6.99998 14Z" fill="#9F98AA"/>
<path d="M21 18.0716C21.6443 18.0716 22.1666 17.5493 22.1666 16.9049C22.1666 16.2606 21.6443 15.7383 21 15.7383C20.3556 15.7383 19.8333 16.2606 19.8333 16.9049C19.8333 17.5493 20.3556 18.0716 21 18.0716Z" fill="#9F98AA"/>
<path d="M16.3334 18.0716C16.9777 18.0716 17.5 17.5493 17.5 16.9049C17.5 16.2606 16.9777 15.7383 16.3334 15.7383C15.689 15.7383 15.1667 16.2606 15.1667 16.9049C15.1667 17.5493 15.689 18.0716 16.3334 18.0716Z" fill="#9F98AA"/>
<path d="M11.6667 18.0716C12.311 18.0716 12.8333 17.5493 12.8333 16.9049C12.8333 16.2606 12.311 15.7383 11.6667 15.7383C11.0223 15.7383 10.5 16.2606 10.5 16.9049C10.5 17.5493 11.0223 18.0716 11.6667 18.0716Z" fill="#9F98AA"/>
<path d="M6.99998 18.0716C7.64431 18.0716 8.16665 17.5493 8.16665 16.9049C8.16665 16.2606 7.64431 15.7383 6.99998 15.7383C6.35565 15.7383 5.83331 16.2606 5.83331 16.9049C5.83331 17.5493 6.35565 18.0716 6.99998 18.0716Z" fill="#9F98AA"/>
<path d="M16.3334 22.1317C16.9777 22.1317 17.5 21.6093 17.5 20.965C17.5 20.3207 16.9777 19.7983 16.3334 19.7983C15.689 19.7983 15.1667 20.3207 15.1667 20.965C15.1667 21.6093 15.689 22.1317 16.3334 22.1317Z" fill="#9F98AA"/>
<path d="M11.6667 22.1317C12.311 22.1317 12.8333 21.6093 12.8333 20.965C12.8333 20.3207 12.311 19.7983 11.6667 19.7983C11.0223 19.7983 10.5 20.3207 10.5 20.965C10.5 21.6093 11.0223 22.1317 11.6667 22.1317Z" fill="#9F98AA"/>
<path d="M6.99998 22.1317C7.64431 22.1317 8.16665 21.6093 8.16665 20.965C8.16665 20.3207 7.64431 19.7983 6.99998 19.7983C6.35565 19.7983 5.83331 20.3207 5.83331 20.965C5.83331 21.6093 6.35565 22.1317 6.99998 22.1317Z" fill="#9F98AA"/>
</svg>
