<svg width="24" height="24" viewBox="0 0 24 24" fill="none" xmlns="http://www.w3.org/2000/svg">
<path d="M19.0711 4.92895C15.1749 1.0328 8.82511 1.0328 4.92895 4.92895C1.0328 8.82511 1.0328 15.1749 4.92895 19.0711C8.82511 22.9672 15.1749 22.9672 19.0711 19.0711C22.9672 15.1749 22.9672 8.82511 19.0711 4.92895ZM12.7284 14.6941C12.7284 15.1184 12.3889 15.4436 11.9788 15.4436C11.7738 15.4366 11.5828 15.3588 11.4485 15.2244C11.3141 15.0901 11.2293 14.8921 11.2363 14.687L11.2434 12.7566L9.32008 12.7708C9.10795 12.7708 8.91703 12.693 8.77561 12.5516C8.64126 12.4172 8.56348 12.2263 8.56348 12.0283C8.55641 11.6111 8.88874 11.2788 9.30594 11.2717L11.2576 11.2576L11.2717 9.30594C11.2788 8.88874 11.6111 8.55641 12.0283 8.56348C12.4384 8.56348 12.7778 8.90289 12.7708 9.32008L12.7566 11.2434L14.687 11.2363C15.1042 11.2293 15.4366 11.5616 15.4436 11.9788C15.4436 12.3889 15.1184 12.7284 14.6941 12.7284L12.7425 12.7425L12.7284 14.6941Z" fill="#3D3D3D"/>
</svg>
