<svg width="32" height="32" viewBox="0 0 32 32" fill="none" xmlns="http://www.w3.org/2000/svg">
<rect width="32" height="32" rx="16" fill="#F5F1FD"/>
<path d="M22.25 6.75H9.75C8.09315 6.75 6.75 8.09315 6.75 9.75V22.25C6.75 23.9069 8.09315 25.25 9.75 25.25H22.25C23.9069 25.25 25.25 23.9069 25.25 22.25V9.75C25.25 8.09315 23.9069 6.75 22.25 6.75Z" stroke="#7C38EA" stroke-width="1.5" stroke-linecap="round" stroke-linejoin="round"/>
<path d="M17.7301 14.78C17.7301 15.34 17.0801 15.84 16.0901 16.15C15.4971 16.3172 14.8859 16.4112 14.2701 16.43C14.157 16.44 14.0433 16.44 13.9301 16.43C11.8401 16.43 10.1401 15.68 10.1401 14.76C10.1401 13.84 11.8401 13.09 13.9301 13.09H14.2701C14.4401 13.09 14.6001 13.09 14.7601 13.09C15.6534 13.1655 16.51 13.4799 17.2401 14C17.3738 14.0864 17.4869 14.201 17.5716 14.3357C17.6562 14.4705 17.7104 14.6221 17.7301 14.78V14.78Z" stroke="#7C38EA" stroke-width="1.5" stroke-linecap="round" stroke-linejoin="round"/>
<path d="M17.7298 14.78V17.17C17.7298 17.78 16.9998 18.3 15.8998 18.59C15.2466 18.759 14.5744 18.843 13.8998 18.84C12.1698 18.84 10.7098 18.33 10.2598 17.64" stroke="#7C38EA" stroke-width="1.5" stroke-linecap="round" stroke-linejoin="round"/>
<path d="M17.7301 17.17V19.66C17.7301 20.59 16.0301 21.33 13.9301 21.33C11.8301 21.33 10.1401 20.59 10.1401 19.66" stroke="#7C38EA" stroke-width="1.5" stroke-linecap="round" stroke-linejoin="round"/>
<path d="M14.49 12.9C14.356 12.7432 14.2785 12.546 14.27 12.34C14.27 11.42 15.97 10.67 18.07 10.67C20.17 10.67 21.86 11.42 21.86 12.34C21.86 13.26 20.16 14 18.07 14C17.7936 14.0152 17.5165 14.0152 17.24 14" stroke="#7C38EA" stroke-width="1.5" stroke-linecap="round" stroke-linejoin="round"/>
<path d="M17.73 18.88H18.07C20.16 18.88 21.86 18.14 21.86 17.22" stroke="#7C38EA" stroke-width="1.5" stroke-linecap="round" stroke-linejoin="round"/>
<path d="M17.73 16.39H18.07C20.16 16.39 21.86 15.64 21.86 14.73" stroke="#7C38EA" stroke-width="1.5" stroke-linecap="round" stroke-linejoin="round"/>
<path d="M21.8599 17.22V14.73V12.34" stroke="#7C38EA" stroke-width="1.5" stroke-linecap="round" stroke-linejoin="round"/>
<path d="M10.1401 19.66V14.78" stroke="#7C38EA" stroke-width="1.5" stroke-linecap="round" stroke-linejoin="round"/>
</svg>
