<svg width="24" height="24" viewBox="0 0 24 24" fill="none" xmlns="http://www.w3.org/2000/svg">
<path d="M18.27 7.17993H2.75V17.1999C2.75 18.8499 4.09 20.1799 5.73 20.1799H18.26C19.91 20.1799 21.24 18.8399 21.24 17.1999V10.1699C21.25 8.51993 19.91 7.17993 18.27 7.17993Z" stroke="#7C38EA" stroke-width="1.5" stroke-linecap="round" stroke-linejoin="round"/>
<path d="M8.97998 3.82007H14.11C15.81 3.82007 17.19 5.33007 17.19 7.18007" stroke="#7C38EA" stroke-width="1.5" stroke-linecap="round" stroke-linejoin="round"/>
<path d="M2.75 10.86V5.89001" stroke="#7C38EA" stroke-width="1.5" stroke-linecap="round" stroke-linejoin="round"/>
<path d="M11.48 7.18007H4.29C3.44 7.18007 2.75 6.43007 2.75 5.50007C2.75 4.57007 3.44 3.82007 4.29 3.82007H11.48" stroke="#7C38EA" stroke-width="1.5" stroke-linecap="round" stroke-linejoin="round"/>
<path d="M17.71 14.19C17.9917 14.19 18.22 13.9617 18.22 13.68C18.22 13.3984 17.9917 13.17 17.71 13.17C17.4283 13.17 17.2 13.3984 17.2 13.68C17.2 13.9617 17.4283 14.19 17.71 14.19Z" stroke="#7C38EA" stroke-width="1.5" stroke-linecap="round" stroke-linejoin="round"/>
</svg>
