<svg width="20" height="20" viewBox="0 0 20 20" fill="none" xmlns="http://www.w3.org/2000/svg">
<path d="M9.87505 17.5C9.45005 17.525 9.03337 17.375 8.6667 17.2084C7.85004 16.85 7.21672 16.1917 6.99172 15.35C6.96672 15.2583 6.95005 15.175 6.93338 15.1C6.89171 14.8833 6.8667 14.7167 6.8667 14.5833C6.8667 13.7917 7.17505 13.0167 7.74171 12.4L9.45838 10.475C9.45838 10.475 9.67503 10.2333 9.88336 10C10.1 10.2417 10.3084 10.475 10.3084 10.475L12.025 12.4C12.5917 13.0167 12.9001 13.7917 12.9001 14.5833C12.9001 14.7167 12.875 14.8833 12.8334 15.1C12.8084 15.175 12.7917 15.2583 12.775 15.35C12.55 16.1917 11.9167 16.85 11.1 17.2084C10.7084 17.3667 10.3 17.4667 9.87505 17.5Z" stroke="#9F98AA" stroke-width="1.25" stroke-linecap="round" stroke-linejoin="round"/>
<path d="M10.5917 3.54997C10.325 3.04997 10.1334 2.67498 10.1334 2.67498C10 2.44998 9.7417 2.29163 9.4417 2.29163C9.22503 2.29163 9.00005 2.39162 8.85838 2.54162L5.15004 6.70828C3.93337 8.03328 3.26672 9.70831 3.26672 11.425C3.26672 11.7083 3.31672 12.0666 3.41672 12.5333C3.46672 12.6999 3.50005 12.8666 3.55005 13.0666C4.25839 15.7083 6.83338 17.5166 9.79171 17.7C12.9167 17.7166 15.7584 15.8333 16.475 13.075C16.5334 12.8833 16.5751 12.6916 16.6251 12.5333C16.7084 12.0999 16.7584 11.75 16.7584 11.475V11.3666C16.7584 9.55831 15.8417 7.51663 14.9917 6.19996L14.2001 4.99162C14.0751 4.78328 13.8334 4.66665 13.5667 4.65832C13.3084 4.65832 13.0667 4.77494 12.9334 4.97494L12.0334 6.24996C12.0167 6.24996 11.15 4.6083 10.5917 3.54997Z" stroke="#9F98AA" stroke-width="1.25" stroke-linecap="round" stroke-linejoin="round"/>
</svg>
