<svg width="24" height="24" viewBox="0 0 24 24" fill="none" xmlns="http://www.w3.org/2000/svg">
<path d="M18.12 12.81H11.19V5.87C11.19 5.46 10.85 5.12 10.44 5.12C5.79001 5.12 2.01001 8.9 2.01001 13.56C2.01001 18.21 5.79001 22 10.44 22C15.09 22 18.87 18.22 18.87 13.56C18.87 13.15 18.53 12.81 18.12 12.81Z" fill="#7C38EA"/>
<path d="M19.5301 4.47C17.9601 2.9 15.7901 2 13.5701 2C13.1601 2 12.8201 2.34 12.8201 2.75V10.44C12.8201 10.85 13.1601 11.19 13.5701 11.19H21.2501C21.6601 11.19 22.0001 10.85 22.0001 10.44C22.0001 8.22 21.1001 6.04 19.5301 4.47Z" fill="#7C38EA"/>
</svg>
