<svg width="32" height="32" viewBox="0 0 32 32" fill="none" xmlns="http://www.w3.org/2000/svg">
<rect width="32" height="32" fill="white"/>
<path d="M2.60026 0.97344C1.71901 1.18594 0.837763 1.87344 0.412763 2.67969C-0.024737 3.51719 0.000262985 2.60469 0.000262985 15.9984C0.000262985 26.5609 0.012763 28.1422 0.094013 28.4922C0.381513 29.7047 1.41901 30.7422 2.63151 31.0297C3.21276 31.1672 16.8065 31.1672 17.4565 31.0297C18.694 30.7672 19.769 29.6922 20.0315 28.4547C20.169 27.7984 20.169 4.09219 20.0315 3.50469C19.744 2.28594 18.7128 1.25469 17.494 0.96719C16.9128 0.835939 3.16901 0.835939 2.60026 0.97344ZM5.12526 3.34219C5.12526 4.41719 5.35651 5.04219 5.96901 5.65469C6.37526 6.06094 6.82526 6.31094 7.36276 6.42969C7.81276 6.52344 12.3065 6.52344 12.7628 6.42969C13.5628 6.26094 14.269 5.72344 14.644 5.01719C14.919 4.48594 15.0003 4.09219 15.0003 3.33594V2.73594L16.0815 2.76094C16.9815 2.77969 17.194 2.79844 17.3753 2.89844C17.6815 3.06094 17.9253 3.29844 18.0815 3.59219L18.219 3.84219V15.9984V28.1547L18.0815 28.4047C17.9253 28.6984 17.6815 28.9359 17.3753 29.0984C17.1628 29.2109 16.8628 29.2172 10.0628 29.2172C3.26276 29.2172 2.96276 29.2109 2.75026 29.0984C2.44401 28.9359 2.20026 28.6984 2.04401 28.4047L1.90651 28.1547V15.9984C1.90651 4.25469 1.91276 3.83594 2.02526 3.62344C2.24401 3.21094 2.56901 2.93594 3.00026 2.80469C3.08776 2.77969 3.60026 2.75469 4.14401 2.75469L5.12526 2.74844V3.34219ZM13.1253 3.31094C13.1253 4.01094 13.0003 4.30469 12.6253 4.49844C12.394 4.61719 12.2628 4.62344 10.0565 4.62344C7.76901 4.62344 7.73151 4.62344 7.48776 4.48594C7.11276 4.27344 7.00026 3.99844 7.00026 3.31094V2.74844H10.0628H13.1253V3.31094Z" fill="#7C38EA"/>
<path d="M4.125 13.2609C3.69375 13.5609 3.6875 13.5922 3.6875 15.9984C3.6875 17.9234 3.7 18.1797 3.8 18.3734C4.13125 19.0422 5.11875 19.0422 5.45 18.3734C5.5125 18.2547 5.5625 18.0297 5.5625 17.8734V17.5922L5.83125 18.0609C6.25 18.7984 6.6875 19.0109 7.23125 18.7422C7.79375 18.4547 7.78125 18.5359 7.8 16.1047C7.8125 14.2484 7.80625 13.9297 7.7125 13.6984C7.45 13.0109 6.4875 12.9172 6.08125 13.5422C6.01875 13.6359 5.95625 13.8672 5.9375 14.0609L5.90625 14.4047L5.625 13.9047C5.45625 13.6047 5.2625 13.3547 5.13125 13.2672C4.84375 13.0734 4.40625 13.0734 4.125 13.2609Z" fill="#7C38EA"/>
<path d="M8.90659 13.2099C8.62534 13.3287 8.38784 13.6474 8.34409 13.9537C8.32534 14.0974 8.31284 15.1162 8.32534 16.2162C8.34409 18.1599 8.35034 18.2224 8.48159 18.4412C8.85659 19.0349 9.73159 19.0162 10.0816 18.4037C10.1253 18.3349 10.1691 18.0537 10.1878 17.7787L10.2191 17.2787L10.5316 17.2474C10.7066 17.2287 10.9066 17.1724 10.9878 17.1224C11.3691 16.8787 11.5066 16.2537 11.2628 15.8599C11.1003 15.5974 10.8628 15.4599 10.4878 15.4037C10.2066 15.3599 10.1878 15.3474 10.1878 15.1787C10.1878 15.0037 10.2003 14.9974 10.4878 14.9974C11.0566 14.9974 11.4378 14.6724 11.4816 14.1412C11.5128 13.7599 11.3566 13.4537 11.0253 13.2662C10.8066 13.1412 10.7003 13.1224 9.93784 13.1287C9.37534 13.1287 9.03159 13.1537 8.90659 13.2099Z" fill="#7C38EA"/>
<path d="M13.6748 13.2438C12.4935 13.7063 11.7748 15.0875 11.9873 16.4813C12.131 17.4313 12.7248 18.2938 13.4935 18.6688C13.7998 18.825 13.9123 18.8438 14.4373 18.8438C15.1373 18.8438 15.381 18.7438 15.9185 18.2313C16.2873 17.8875 16.406 17.5875 16.3373 17.2125C16.2498 16.7375 15.8435 16.4625 15.306 16.5125C15.0498 16.5375 14.9498 16.5875 14.756 16.775C14.4748 17.05 14.3123 17.0563 14.0998 16.8125C13.731 16.3688 13.731 15.6313 14.0998 15.1875C14.2998 14.9563 14.4623 14.95 14.8498 15.1563C15.2123 15.35 15.456 15.35 15.7748 15.1688C16.3748 14.825 16.406 14.025 15.8248 13.5875C15.2435 13.1375 14.3185 12.9938 13.6748 13.2438Z" fill="#7C38EA"/>
<path d="M28.7257 8.68594C28.3194 8.81094 28.0132 9.29844 28.0819 9.71094C28.1007 9.82344 28.2632 10.1359 28.4382 10.4109C29.9319 12.6922 30.4507 15.4109 29.9007 18.1234C29.6819 19.1984 29.1319 20.5047 28.4444 21.5859C28.0819 22.1609 28.0257 22.3672 28.1382 22.7109C28.2569 23.0734 28.6132 23.3359 28.9882 23.3359C29.4319 23.3359 29.6444 23.1734 30.0694 22.5109C32.0382 19.4797 32.5257 15.6984 31.3944 12.2547C31.0132 11.0922 30.0694 9.30469 29.6132 8.88594C29.4694 8.75469 29.1194 8.61719 28.9694 8.62969C28.9382 8.62969 28.8257 8.66094 28.7257 8.68594Z" fill="#7C38EA"/>
<path d="M25.5812 10.85C25.3125 10.9875 25.1062 11.325 25.1 11.65C25.0937 11.8625 25.1625 12.0188 25.45 12.5C26.0437 13.4875 26.3187 14.2812 26.45 15.3937C26.6062 16.7875 26.2187 18.3375 25.3875 19.6187C25.175 19.9438 25.125 20.075 25.125 20.3062C25.125 20.8312 25.525 21.25 26.0312 21.25C26.5 21.25 26.8687 20.8937 27.3687 19.9375C28.4812 17.8187 28.6562 15.4562 27.8687 13.2063C27.5125 12.1875 26.875 11.1125 26.4812 10.875C26.2375 10.725 25.8562 10.7188 25.5812 10.85Z" fill="#7C38EA"/>
<path d="M22.632 13.0121C22.457 13.0996 22.307 13.2371 22.2382 13.3746C22.057 13.7246 22.0945 13.9996 22.4007 14.5808C22.9632 15.6183 22.9382 16.6558 22.332 17.5683C22.0945 17.9308 22.0632 18.3933 22.2632 18.6871C22.5445 19.1058 23.0632 19.2371 23.4945 18.9996C23.8632 18.7871 24.3132 18.0121 24.5445 17.1683C24.6757 16.6933 24.6882 15.3621 24.5695 14.9371C24.3382 14.1058 23.907 13.3058 23.557 13.0433C23.3007 12.8558 22.9507 12.8433 22.632 13.0121Z" fill="#7C38EA"/>
</svg>
