<svg width="16" height="16" viewBox="0 0 16 16" fill="none" xmlns="http://www.w3.org/2000/svg">
<path d="M8.00004 14.6666C4.32671 14.6666 1.33337 11.6733 1.33337 7.99996C1.33337 4.32663 4.32671 1.33329 8.00004 1.33329C11.6734 1.33329 14.6667 4.32663 14.6667 7.99996C14.6667 11.6733 11.6734 14.6666 8.00004 14.6666ZM8.00004 5.27996C7.72671 5.27996 7.50004 5.49996 7.50004 5.77996C7.50004 6.05329 7.72671 6.27996 8.00004 6.27996C8.28004 6.27996 8.50004 6.05329 8.50004 5.77996C8.50004 5.49996 8.28004 5.27996 8.00004 5.27996ZM8.50004 7.61329C8.50004 7.33329 8.27337 7.11329 8.00004 7.11329C7.72671 7.11329 7.50004 7.33329 7.50004 7.61329V10.72C7.50004 11 7.72671 11.22 8.00004 11.22C8.27337 11.22 8.50004 11 8.50004 10.72V7.61329Z" fill="#9F98AA"/>
</svg>
