<svg width="32" height="32" viewBox="0 0 32 32" fill="none" xmlns="http://www.w3.org/2000/svg">
<g clip-path="url(#clip0_14243_39412)">
<path d="M6.3125 0.0625019C5.8125 0.0875015 5.30625 0.131252 5.1875 0.156252C4.6875 0.262503 4.2625 0.568752 3.45 1.4C1.74375 3.1625 0.943746 4.41875 0.299996 6.3375C-0.143754 7.65625 -0.100004 8.30625 0.631246 11.2125C1.3125 13.925 2.0625 15.9875 3.1625 18.1875C6.0625 23.9563 10.4125 27.7563 16.8812 30.175C19.0937 31.0063 23 32 24.0437 32C25.1562 32 27.0312 31.3063 28.4062 30.3875C29.5625 29.6188 31.3437 27.9313 31.65 27.325C31.85 26.9313 31.9125 26.4563 31.9687 24.925C32.0062 23.9938 31.9937 23.7625 31.9062 23.4625C31.725 22.8375 31.3 22.3313 30.7187 22.0438C30.1937 21.7813 24.8625 19.4313 24.5187 19.3063C23.7437 19.025 22.7875 19.2688 22.2125 19.8813C22.1 20 21.5312 20.7688 20.9375 21.5938C20.2437 22.5688 19.8187 23.1 19.7375 23.1125C19.5312 23.15 18.4562 22.7438 17.5 22.275C14.225 20.65 11.35 17.775 9.72499 14.5C9.25624 13.5438 8.84999 12.4688 8.8875 12.2625C8.89999 12.175 9.42499 11.7625 10.4062 11.0625C11.2312 10.475 12 9.9 12.1187 9.79375C12.6 9.3375 12.85 8.6875 12.8 8.00625C12.7687 7.6375 12.6312 7.2875 11.4437 4.6C9.86249 1.0375 9.83749 0.975002 9.48749 0.650002C9.1375 0.318752 8.96875 0.218752 8.5625 0.100002C8.20624 -0.00624847 7.85625 -0.0124969 6.3125 0.0625019ZM4.775 4.1C5.45 5.88125 6.52499 8.20625 7.3875 9.74375L7.79375 10.4563L7.56249 10.6625C6.92499 11.2438 6.71249 12.2125 7.01874 13.1625C8.13124 16.5938 10.5687 19.9 13.7312 22.275C15.425 23.5438 17.025 24.3938 18.8375 24.9813C19.25 25.1125 19.4125 25.1375 19.8375 25.1125C20.45 25.075 20.8375 24.9125 21.2625 24.5L21.5625 24.2125L21.9687 24.4438C22.7187 24.8813 24.025 25.55 25 26C25.9312 26.4313 27.9625 27.275 28.4562 27.4313C28.5812 27.475 28.6875 27.5375 28.6875 27.5625C28.6875 27.65 27.7812 28.4063 27.3125 28.7125C26.4062 29.3125 24.9625 29.9188 24.2937 29.9813C23.875 30.0188 22.8875 29.8375 21.1562 29.4C14.4062 27.7063 9.65625 24.6563 6.50625 20C4.59375 17.175 3.3 13.9813 2.3 9.6C1.94375 8.0625 1.94375 7.6 2.275 6.71875C2.56875 5.95 2.925 5.23125 3.2875 4.6875C3.5875 4.23125 4.35 3.3125 4.425 3.3125C4.45625 3.3125 4.6125 3.66875 4.775 4.1Z" fill="#7C38EA"/>
<path d="M18.3436 0.0880222C17.7623 0.338022 17.5686 1.13802 17.9686 1.61927C18.1936 1.88177 18.4936 2.00052 18.9311 2.00052C19.8686 2.00052 21.2436 2.23177 22.2811 2.56927C23.0561 2.82552 24.2498 3.41302 24.9811 3.90052C27.2623 5.41927 28.9498 7.78802 29.6248 10.4005C29.8436 11.263 29.9248 11.8068 29.9873 12.8255C30.0373 13.538 30.0561 13.6318 30.2061 13.8318C30.6373 14.3943 31.3998 14.3755 31.8373 13.7943C31.9998 13.5693 32.0311 13.0693 31.9436 12.0755C31.6561 9.02552 30.4123 6.30052 28.3123 4.10052C26.6436 2.36302 24.5311 1.09427 22.2373 0.475523C20.7623 0.069273 18.8186 -0.118227 18.3436 0.0880222Z" fill="#7C38EA"/>
<path d="M18.3436 3.70485C17.7623 3.9736 17.5686 4.7611 17.9686 5.24235C18.1873 5.4986 18.4936 5.6236 18.9186 5.6236C19.4811 5.6236 20.4186 5.7861 21.0686 5.99235C23.0186 6.6236 24.6436 8.01735 25.5811 9.8736C26.0311 10.7611 26.2748 11.7299 26.3686 12.9486C26.4123 13.5299 26.4373 13.6424 26.5811 13.8361C26.9061 14.2549 27.4936 14.3486 27.9373 14.0424C28.3186 13.7861 28.3873 13.5611 28.3498 12.7799C28.2123 10.0048 26.9186 7.4861 24.7186 5.70485C23.5998 4.7986 21.8998 4.02985 20.4686 3.77985C19.6373 3.6361 18.5748 3.5986 18.3436 3.70485Z" fill="#7C38EA"/>
<path d="M18.3434 7.33047C18.0809 7.44922 17.8246 7.76797 17.7746 8.03047C17.6496 8.70547 18.1309 9.24922 18.8559 9.24922C19.7996 9.25547 20.8371 9.70547 21.5621 10.4367C22.2996 11.1742 22.6371 11.918 22.7434 13.0555C22.7996 13.668 22.8746 13.8367 23.2121 14.0867C23.4559 14.268 24.0434 14.268 24.2871 14.0867C24.6684 13.8055 24.7184 13.668 24.7121 12.9805C24.6996 11.5305 24.0996 10.168 22.9996 9.05547C22.1809 8.22422 21.2996 7.71797 20.1934 7.43047C19.5621 7.26797 18.5934 7.21797 18.3434 7.33047Z" fill="#7C38EA"/>
<path d="M18.0496 10.9922C17.5746 11.1484 17.3059 11.3234 16.9746 11.6922C16.5746 12.1359 16.4121 12.5859 16.4121 13.2484C16.4121 13.9859 16.5809 14.4047 17.0871 14.9109C17.5934 15.4172 18.0121 15.5859 18.7496 15.5859C19.1559 15.5859 19.3684 15.5547 19.6371 15.4422C20.1434 15.2422 20.6371 14.7797 20.8871 14.2609C21.0746 13.8797 21.0934 13.7922 21.0934 13.2484C21.0934 12.7359 21.0684 12.6047 20.9246 12.2984C20.6996 11.8047 20.2496 11.3484 19.7809 11.1172C19.2621 10.8672 18.5809 10.8109 18.0496 10.9922Z" fill="#7C38EA"/>
</g>
<defs>
<clipPath id="clip0_14243_39412">
<rect width="32" height="32" fill="white"/>
</clipPath>
</defs>
</svg>
