<svg width="140" height="113" viewBox="0 0 140 113" fill="none" xmlns="http://www.w3.org/2000/svg">
<path d="M70 113L97.4167 85.6237L89.25 77.4691L75.8333 90.866L75.8333 52.4227L64.1667 52.4227L64.1667 90.866L50.75 77.4691L42.5833 85.6237L70 113ZM34.4167 99.0206L35 87.3711L34.4167 87.3711C21.5833 87.3711 11.6667 76.8866 11.6667 64.0722C11.6667 50.6753 21.5833 40.7732 35 40.7732H40.8333V29.1237C40.8333 19.2216 48.4167 11.6495 57.75 11.6495L75.25 11.6495C85.1667 11.6495 93.3333 19.8041 93.3333 29.1237L70 29.1237V40.7732L104.417 40.7732C117.833 40.7732 128.333 51.2577 128.333 64.0722C128.333 76.8866 117.833 87.3711 105 87.3711L105 99.0206C124.25 99.0206 140 83.2938 140 64.0722C140 44.8505 124.25 29.7062 105 29.1237C105 12.8144 91.5833 0 75.25 0L57.75 0C42 0 29.1667 12.8144 29.1667 29.1237V29.7062C12.25 32.0361 -2.86102e-06 46.0155 -2.86102e-06 64.0722C-2.86102e-06 83.2938 15.1667 99.0206 34.4167 99.0206Z" fill="#7C38EA"/>
</svg>
