<svg width="28" height="28" viewBox="0 0 28 28" fill="none" xmlns="http://www.w3.org/2000/svg">
<g clip-path="url(#clip0_10573_63889)">
<path d="M1.44 7.68V4.56C1.44 2.79764 2.79764 1.44 4.56 1.44H7.68C8.07765 1.44 8.4 1.11765 8.4 0.72C8.4 0.322355 8.07765 0 7.68 0H4.56C2.00235 0 0 2.00235 0 4.56V7.68C0 8.07765 0.322355 8.4 0.72 8.4C1.11765 8.4 1.44 8.07765 1.44 7.68Z" fill="#7C38EA"/>
<path d="M26.56 7.68V4.56C26.56 2.79764 25.2024 1.44 23.44 1.44H20.32C19.9224 1.44 19.6 1.11765 19.6 0.72C19.6 0.322355 19.9224 0 20.32 0H23.44C25.9976 0 28 2.00235 28 4.56V7.68C28 8.07765 27.6776 8.4 27.28 8.4C26.8824 8.4 26.56 8.07765 26.56 7.68Z" fill="#7C38EA"/>
<path d="M1.44 20.32V23.44C1.44 25.2024 2.79764 26.56 4.56 26.56H7.68C8.07765 26.56 8.4 26.8824 8.4 27.28C8.4 27.6776 8.07765 28 7.68 28H4.56C2.00235 28 0 25.9976 0 23.44V20.32C0 19.9224 0.322355 19.6 0.72 19.6C1.11765 19.6 1.44 19.9224 1.44 20.32Z" fill="#7C38EA"/>
<path d="M26.56 20.32V23.44C26.56 25.2024 25.2024 26.56 23.44 26.56H20.32C19.9224 26.56 19.6 26.8824 19.6 27.28C19.6 27.6776 19.9224 28 20.32 28H23.44C25.9976 28 28 25.9976 28 23.44V20.32C28 19.9224 27.6776 19.6 27.28 19.6C26.8824 19.6 26.56 19.9224 26.56 20.32Z" fill="#7C38EA"/>
<path d="M7.61426 10.5747V12.5758C7.61426 12.9901 7.92766 13.3258 8.31426 13.3258C8.70086 13.3258 9.01426 12.9901 9.01426 12.5758V10.5747C9.01426 10.1605 8.70086 9.82471 8.31426 9.82471C7.92766 9.82471 7.61426 10.1605 7.61426 10.5747Z" fill="#7C38EA"/>
<path d="M19.1577 10.5747V12.5758C19.1577 12.9901 19.4711 13.3258 19.8577 13.3258C20.2443 13.3258 20.5577 12.9901 20.5577 12.5758V10.5747C20.5577 10.1605 20.2443 9.82471 19.8577 9.82471C19.4711 9.82471 19.1577 10.1605 19.1577 10.5747Z" fill="#7C38EA"/>
<path d="M9.07637 20.6788C10.4418 21.9532 12.0954 22.5963 14.0002 22.5963C15.9049 22.5963 17.5586 21.9532 18.924 20.6788C19.2215 20.4012 19.2376 19.9349 18.9599 19.6374C18.6822 19.3399 18.216 19.3238 17.9185 19.6015C16.8277 20.6195 15.534 21.1226 14.0002 21.1226C12.4663 21.1226 11.1726 20.6195 10.0819 19.6015C9.78439 19.3238 9.31812 19.3399 9.04046 19.6374C8.76279 19.9349 8.77887 20.4012 9.07637 20.6788Z" fill="#7C38EA"/>
<path d="M14.0001 10.5615V15.7194C14.0001 16.0495 13.8387 16.2107 13.507 16.2107H13.0176C12.6107 16.2107 12.2808 16.5406 12.2808 16.9475C12.2808 17.3545 12.6107 17.6844 13.0176 17.6844H13.507C14.6522 17.6844 15.4737 16.8638 15.4737 15.7194V10.5615C15.4737 10.1546 15.1438 9.82471 14.7369 9.82471C14.33 9.82471 14.0001 10.1546 14.0001 10.5615Z" fill="#7C38EA"/>
</g>
<defs>
<clipPath id="clip0_10573_63889">
<rect width="28" height="28" fill="white"/>
</clipPath>
</defs>
</svg>
