<svg width="32" height="32" viewBox="0 0 32 32" fill="none" xmlns="http://www.w3.org/2000/svg">
<path d="M16 32C24.8667 32 32 24.8667 32 16C32 7.13328 24.8667 0 16 0C7.13328 0 0 7.13328 0 16C0 24.8667 7.13328 32 16 32Z" fill="#2775CA"/>
<path d="M20.4 18.5333C20.4 16.2 19 15.4 16.2 15.0667C14.2 14.8 13.8 14.2667 13.8 13.3333C13.8 12.3999 14.4667 11.8 15.8 11.8C17 11.8 17.6667 12.2 18 13.2C18.0667 13.4 18.2667 13.5333 18.4667 13.5333H19.5333C19.8 13.5333 20 13.3333 20 13.0667V13C19.7333 11.5333 18.5333 10.4 17 10.2667V8.66674C17 8.40002 16.8 8.20002 16.4667 8.1333H15.4667C15.2 8.1333 15 8.3333 14.9333 8.66674V10.2C12.9333 10.4667 11.6667 11.8 11.6667 13.4667C11.6667 15.6667 13 16.5333 15.8 16.8667C17.6667 17.2 18.2667 17.6 18.2667 18.6667C18.2667 19.7335 17.3333 20.4667 16.0667 20.4667C14.3333 20.4667 13.7333 19.7333 13.5333 18.7333C13.4667 18.4667 13.2667 18.3333 13.0667 18.3333H11.9333C11.6667 18.3333 11.4667 18.5333 11.4667 18.8V18.8667C11.7333 20.5333 12.8 21.7333 15 22.0667V23.6667C15 23.9333 15.2 24.1333 15.5333 24.2H16.5333C16.8 24.2 17 24 17.0667 23.6667V22.0667C19.0667 21.7333 20.4 20.3333 20.4 18.5333V18.5333Z" fill="white"/>
<path d="M12.6 25.5332C7.40002 23.6666 4.7333 17.8666 6.66674 12.7332C7.66674 9.93319 9.86674 7.79991 12.6 6.79991C12.8667 6.66663 13 6.46663 13 6.13319V5.19991C13 4.93319 12.8667 4.73319 12.6 4.66663C12.5333 4.66663 12.4 4.66663 12.3333 4.73319C6.00002 6.73319 2.5333 13.4666 4.5333 19.7999C5.7333 23.5332 8.60002 26.3999 12.3333 27.5999C12.6 27.7332 12.8667 27.5999 12.9333 27.3332C13 27.2666 13 27.1999 13 27.0666V26.1332C13 25.9332 12.8 25.6666 12.6 25.5332ZM19.6667 4.73319C19.4 4.59991 19.1333 4.73319 19.0667 4.99991C19 5.06663 19 5.13319 19 5.26663V6.19991C19 6.46663 19.2 6.73319 19.4 6.86663C24.6 8.73319 27.2667 14.5332 25.3333 19.6666C24.3333 22.4666 22.1333 24.5999 19.4 25.5999C19.1333 25.7332 19 25.9332 19 26.2666V27.1999C19 27.4666 19.1333 27.6666 19.4 27.7332C19.4667 27.7332 19.6 27.7332 19.6667 27.6666C26 25.6666 29.4667 18.9332 27.4667 12.5999C26.2667 8.79991 23.3333 5.93319 19.6667 4.73319V4.73319Z" fill="white"/>
</svg>
