<svg width="20" height="20" viewBox="0 0 20 20" fill="none" xmlns="http://www.w3.org/2000/svg">
<path d="M10 18.3334C14.5917 18.3334 18.3334 14.5917 18.3334 10C18.3334 5.40837 14.5917 1.66671 10 1.66671C5.40837 1.66671 1.66671 5.40837 1.66671 10C1.66671 14.5917 5.40837 18.3334 10 18.3334ZM10 6.60004C10.3417 6.60004 10.625 6.87504 10.625 7.22504C10.625 7.5667 10.3417 7.85004 10 7.85004C9.65004 7.85004 9.37504 7.5667 9.37504 7.22504C9.37504 6.87504 9.65004 6.60004 10 6.60004ZM9.37504 9.5167C9.37504 9.1667 9.65837 8.8917 10 8.8917C10.3417 8.8917 10.625 9.1667 10.625 9.5167L10.625 13.4C10.625 13.75 10.3417 14.025 10 14.025C9.65837 14.025 9.37504 13.75 9.37504 13.4L9.37504 9.5167Z" fill="#877E95"/>
</svg>
