<svg width="32" height="32" viewBox="0 0 32 32" fill="none" xmlns="http://www.w3.org/2000/svg">
<rect width="32" height="32" rx="16" fill="#F5F1FD"/>
<path d="M11.55 23C10.14 23 9 21.86 9 20.45V11.54C9 10.13 10.14 8.98999 11.55 8.98999C12.96 8.98999 14.1 10.13 14.1 11.54V20.45C14.09 21.86 12.95 23 11.55 23Z" fill="#F5F1FD" stroke="#7C38EA" stroke-width="1.5" stroke-linecap="round" stroke-linejoin="round"/>
<path d="M20.4499 23C19.0399 23 17.8999 21.86 17.8999 20.45V11.54C17.8999 10.13 19.0399 8.98999 20.4499 8.98999C21.8599 8.98999 22.9999 10.13 22.9999 11.54V20.45C22.9999 21.86 21.8599 23 20.4499 23Z" fill="#F5F1FD" stroke="#7C38EA" stroke-width="1.5" stroke-linecap="round" stroke-linejoin="round"/>
</svg>
