<svg width="32" height="32" viewBox="0 0 32 32" fill="none" xmlns="http://www.w3.org/2000/svg">
<ellipse cx="15.9998" cy="16" rx="15.9998" ry="16" fill="#0033AD"/>
<path d="M15.7475 6.53244C16.1958 6.29865 16.7431 6.84102 16.5049 7.28896C16.3666 7.65411 15.842 7.7512 15.5741 7.47287C15.2902 7.20575 15.3828 6.67778 15.7475 6.53244ZM10.9251 7.05229C11.1974 6.94017 11.5422 7.1897 11.5144 7.48655C11.5433 7.8088 11.1493 8.04599 10.8717 7.89284C10.5039 7.75038 10.5459 7.15329 10.9251 7.05229V7.05229ZM20.802 7.90189C20.3763 7.85046 20.309 7.18127 20.7187 7.04653C21.0366 6.89152 21.3282 7.1822 21.3747 7.48346C21.308 7.74071 21.0926 7.97626 20.802 7.90189ZM12.0223 9.10481C12.4777 8.81681 13.1274 9.24572 13.0574 9.77462C13.0337 10.3087 12.3244 10.618 11.9242 10.257C11.5373 9.97344 11.5959 9.32287 12.0223 9.10481ZM18.9735 9.4104C19.1766 8.88685 19.9998 8.87101 20.231 9.38067C20.4595 9.77729 20.1784 10.2684 19.7712 10.4033C19.2319 10.504 18.7195 9.92088 18.9735 9.4104ZM15.1668 10.3736C15.1623 9.92355 15.5722 9.58824 15.9999 9.55759C16.2836 9.61447 16.5928 9.73532 16.7144 10.0216C16.9412 10.4164 16.7398 10.9602 16.3301 11.1414C16.1427 11.2464 15.9211 11.207 15.717 11.1948C15.4051 11.0416 15.1424 10.7413 15.1668 10.3736V10.3736ZM7.99509 11.0293C8.41105 10.7736 8.97223 11.2402 8.81476 11.6921C8.72805 12.0829 8.20266 12.242 7.90232 11.9924C7.58171 11.7586 7.63253 11.1965 7.99509 11.0293V11.0293ZM23.3953 11.0284C23.7482 10.7544 24.3305 11.0688 24.2885 11.5143C24.3121 11.9206 23.8087 12.227 23.4583 12.0178C23.0725 11.8444 23.0331 11.2508 23.3953 11.0284V11.0284ZM17.1836 11.8374C17.7659 11.6282 18.4577 11.8786 18.7896 12.3978C19.2274 13.0325 18.9945 13.9992 18.315 14.3634C17.6109 14.7942 16.5829 14.429 16.3229 13.6428C16.0277 12.9389 16.4577 12.0581 17.1836 11.8374V11.8374ZM13.7667 11.9066C14.4121 11.602 15.2807 11.8576 15.5925 12.5178C15.9594 13.1605 15.6757 14.0553 15.0198 14.3872C14.363 14.7601 13.4365 14.4774 13.1187 13.7874C12.7623 13.1202 13.0788 12.2139 13.7667 11.9066V11.9066ZM10.3454 13.0763C10.3944 12.6605 10.7867 12.3899 11.1825 12.3619C11.609 12.4133 11.9496 12.7445 11.996 13.1761C11.968 13.6034 11.6379 14.021 11.1851 14.0184C10.687 14.0613 10.2502 13.5657 10.3454 13.0763V13.0763ZM20.4508 12.4523C20.9622 12.1546 21.6723 12.588 21.6496 13.1755C21.6847 13.798 20.8987 14.2367 20.3895 13.8715C19.8605 13.5675 19.9018 12.7112 20.4508 12.4523V12.4523ZM12.3762 14.6463C12.9743 14.4817 13.6582 14.7636 13.9515 15.3134C14.2728 15.8668 14.1415 16.6355 13.6424 17.0414C13.0024 17.6367 11.8219 17.3977 11.4812 16.5852C11.0897 15.8404 11.5652 14.8423 12.3762 14.6463V14.6463ZM18.857 14.6432C19.4385 14.4768 20.1216 14.701 20.4341 15.2307C20.8474 15.8365 20.6501 16.7401 20.0349 17.1307C19.3904 17.5842 18.392 17.3461 18.0374 16.637C17.6074 15.9035 18.0401 14.8669 18.857 14.6432V14.6432ZM8.52923 15.3344C9.04588 15.1389 9.61858 15.7091 9.40927 16.2213C9.28142 16.688 8.62375 16.8605 8.28402 16.5164C7.88648 16.1933 8.03367 15.4745 8.52923 15.3344V15.3344ZM22.5331 16.0777C22.5182 15.6496 22.8314 15.2705 23.2704 15.2468C23.6242 15.3029 23.9683 15.5883 23.9403 15.9735C23.9727 16.4823 23.3597 16.8281 22.9263 16.589C22.7231 16.4858 22.6189 16.2774 22.5331 16.0777V16.0777ZM5.98888 15.5857C6.29971 15.45 6.68419 15.7194 6.61322 16.0646C6.59656 16.4554 6.01953 16.6057 5.80754 16.2791C5.62024 16.0523 5.73236 15.7026 5.98888 15.5857ZM25.5875 15.5778C25.8063 15.422 26.1575 15.534 26.2442 15.7897C26.3913 16.069 26.1216 16.4516 25.8073 16.4044C25.366 16.4446 25.2232 15.7721 25.5875 15.5778ZM14.0644 17.4541C14.8824 17.2413 15.7616 17.9234 15.7667 18.7656C15.8201 19.6166 14.9542 20.3713 14.1169 20.1747C13.4697 20.0705 12.9619 19.4471 12.9829 18.7932C12.9812 18.1677 13.4532 17.5863 14.0644 17.4541ZM17.3036 17.4523C18.1338 17.2203 19.0392 17.9145 19.026 18.7762C19.0699 19.6115 18.231 20.3408 17.4112 20.175C16.6398 20.0753 16.0706 19.2277 16.2859 18.4791C16.3947 17.9803 16.8114 17.5746 17.3036 17.4523V17.4523ZM11.0583 17.9707C11.6327 17.8727 12.1713 18.5136 11.9383 19.059C11.7684 19.6403 10.9225 19.798 10.5485 19.3232C10.1098 18.8672 10.4373 18.0337 11.0583 17.9707ZM20.5576 17.9963C21.0698 17.7818 21.6986 18.2249 21.6592 18.7808C21.6797 19.3928 20.9035 19.8148 20.4026 19.4576C19.8352 19.1369 19.9385 18.1931 20.5576 17.9963V17.9963ZM23.2127 20.6595C23.0121 20.2856 23.3765 19.7901 23.7916 19.8593C23.9982 19.8558 24.1427 20.0186 24.275 20.1552C24.3022 20.3768 24.3477 20.6411 24.1638 20.8118C23.9141 21.1279 23.3484 21.0377 23.2127 20.6595ZM7.99335 19.9634C8.38132 19.7051 8.93963 20.0903 8.8524 20.5439C8.80601 20.945 8.30068 21.1743 7.96784 20.9467C7.61062 20.74 7.62378 20.1517 7.99335 19.9634V19.9634ZM15.6582 20.8031C16.1661 20.579 16.8132 21.0212 16.765 21.5806C16.8027 22.1988 16.0024 22.6269 15.5058 22.2556C14.9542 21.9369 15.0461 20.9991 15.6582 20.8031V20.8031ZM12.1081 21.6313C12.5407 21.4037 13.1213 21.7968 13.0819 22.281C13.095 22.6785 12.7071 23.0173 12.3148 22.9586C11.9898 22.9516 11.7779 22.6603 11.6738 22.3833C11.6791 22.0814 11.8034 21.7452 12.1081 21.6313V21.6313ZM19.2992 21.6383C19.7441 21.3634 20.3763 21.7582 20.3343 22.276C20.3457 22.8171 19.6311 23.1638 19.2169 22.8083C18.8159 22.5297 18.8649 21.8599 19.2992 21.6383ZM20.5498 24.7299C20.3519 24.4305 20.5848 24.0697 20.9061 24.0014C21.1645 24.054 21.4377 24.2483 21.3834 24.5478C21.3458 24.9532 20.7529 25.0775 20.5498 24.7299V24.7299ZM10.623 24.4699C10.7018 24.2326 10.8927 23.9967 11.172 24.0584C11.5792 24.0873 11.7001 24.7011 11.3437 24.8902C11.0232 25.1063 10.6514 24.8104 10.623 24.4699V24.4699ZM15.4121 24.7421C15.49 24.3911 15.9445 24.2203 16.244 24.4068C16.4419 24.4918 16.4997 24.7132 16.5505 24.9015C16.5233 24.9995 16.4991 25.0976 16.4752 25.1956C16.3526 25.341 16.195 25.4863 15.9909 25.4811C15.6117 25.5255 15.2696 25.0968 15.4121 24.7421Z" fill="white"/>
</svg>
