<svg width="97" height="96" viewBox="0 0 97 96" fill="none" xmlns="http://www.w3.org/2000/svg">
<circle cx="48.5" cy="48" r="47" fill="#FFC043" stroke="white" stroke-width="2"/>
<rect width="64" height="64" transform="translate(17.25 16)" fill="#FFC043"/>
<path d="M49.25 40.7996V51.8929" stroke="white" stroke-width="4" stroke-linecap="round" stroke-linejoin="round"/>
<path d="M49.2503 59.0926C50.2959 59.0926 51.1436 58.2449 51.1436 57.1992C51.1436 56.1536 50.2959 55.3059 49.2503 55.3059C48.2046 55.3059 47.3569 56.1536 47.3569 57.1992C47.3569 58.2449 48.2046 59.0926 49.2503 59.0926Z" fill="white"/>
<path d="M41.8906 30.133L26.2106 57.3864C22.9572 63.0664 27.0372 70.1331 33.5705 70.1331H64.9306C71.4639 70.1331 75.5706 63.0664 72.2906 57.3864L56.6105 30.133C53.3572 24.453 45.1439 24.453 41.8906 30.133Z" stroke="white" stroke-width="8" stroke-linecap="round" stroke-linejoin="round"/>
</svg>
