<svg width="22" height="22" viewBox="0 0 22 22" fill="none" xmlns="http://www.w3.org/2000/svg">
<path d="M5.17653 0.114479C4.32043 0.403165 3.66841 1.12488 3.45936 2.00089C3.41954 2.1751 3.3847 2.55338 3.3847 2.84704V3.3846H2.85212C2.22498 3.3846 1.81186 3.46921 1.38382 3.68821C1.01052 3.87735 0.48292 4.395 0.288804 4.75834C-0.0148122 5.32078 0.000119748 4.93255 0.000119748 12.7171C0.000119748 19.0931 0.0100744 19.8696 0.0797569 20.1135C0.338578 20.9945 1.00554 21.6614 1.88652 21.9202C2.13041 21.9899 2.90688 21.9999 9.28282 21.9999C17.0674 21.9999 16.6791 22.0148 17.2416 21.7112C17.6049 21.5171 18.1225 20.9895 18.3117 20.6162C18.5307 20.1881 18.6153 19.775 18.6153 19.1479V18.6153H19.1529C19.775 18.6153 20.1881 18.5307 20.6162 18.3117C20.9895 18.1225 21.5171 17.6049 21.7112 17.2415C22.0148 16.6791 21.9999 17.0673 21.9999 9.28275C21.9999 2.90677 21.9899 2.1303 21.9202 1.88641C21.6614 1.0104 20.9895 0.338459 20.1135 0.0796371C19.8696 0.00995424 19.0931 -4.5695e-07 12.6724 -4.5695e-07L5.50006 0.00497689L5.17653 0.114479ZM19.8248 1.66243C20.0189 1.74705 20.2827 2.01582 20.3524 2.20496C20.3922 2.30451 20.4071 4.52441 20.4071 9.32257V16.3008L20.2927 16.4999C20.2329 16.6044 20.0836 16.7637 19.9691 16.8483C19.7651 16.9877 19.7203 16.9976 19.1827 17.0176L18.6153 17.0325L18.6053 11.2438L18.5904 5.4502L18.4809 5.16649C18.1325 4.24568 17.3909 3.59862 16.5049 3.43935C16.3058 3.39953 14.3846 3.3846 10.5919 3.3846H4.97744V2.9217C4.97744 2.67283 5.00233 2.37917 5.02721 2.27962C5.09192 2.04569 5.28603 1.81673 5.51997 1.6923C5.69418 1.59773 5.89825 1.59773 12.6823 1.59275C18.5108 1.59275 19.6904 1.6027 19.8248 1.66243ZM16.4054 5.07192C16.5198 5.12169 16.6692 5.23119 16.7438 5.30585C17.0425 5.62938 17.0275 5.19635 17.0126 12.8017L16.9977 19.7501L16.8484 19.9691C16.7637 20.0836 16.6045 20.2329 16.4999 20.2926L16.3008 20.4071L9.25296 20.3922L2.21005 20.3822L2.03087 20.2628C1.9363 20.1981 1.80191 20.0637 1.7372 19.9691L1.61775 19.7899L1.60282 12.7569C1.59286 5.91309 1.59286 5.71897 1.68743 5.53481C1.80689 5.30585 1.96616 5.15653 2.19014 5.05698C2.34444 4.99228 3.21547 4.98232 9.28282 4.98232C15.9275 4.97735 16.2113 4.98232 16.4054 5.07192Z" fill="#7C38EA"/>
</svg>
