<svg width="32" height="32" viewBox="0 0 32 32" fill="none" xmlns="http://www.w3.org/2000/svg">
<ellipse cx="15.9998" cy="16" rx="15.9998" ry="16" fill="#C2A633"/>
<path fill-rule="evenodd" clip-rule="evenodd" d="M10.709 24.3698H16.2328H16.2329C16.2329 24.3698 23.9998 25.0312 23.9998 16.1348C23.9998 7.58319 16.9072 7.61352 15.5364 7.61938C15.5043 7.61952 15.4754 7.61964 15.4497 7.61964H10.7089V15.0811H8.76184V16.9088H10.709V24.3698ZM13.8203 10.7157H15.9996C16.8147 10.7157 20.9155 11.0491 20.9221 16.195C20.9286 21.2797 16.794 21.2745 16.1289 21.2736C16.1209 21.2736 16.1133 21.2736 16.1063 21.2736H13.8203V16.9087H17.2489V15.081H13.8203V10.7157Z" fill="white"/>
</svg>
