<svg width="32" height="32" viewBox="0 0 32 32" fill="none" xmlns="http://www.w3.org/2000/svg">
<path d="M31.5211 19.8706C29.3839 28.442 20.7014 33.6585 12.128 31.521C3.55811 29.384 -1.65895 20.7021 0.479281 12.1312C2.61551 3.55876 11.2979 -1.65819 19.8688 0.478793C28.4418 2.61577 33.6583 11.2987 31.5211 19.8706V19.8706Z" fill="#F7931A"/>
<path d="M23.055 13.7206C23.3735 11.5916 21.7523 10.4472 19.5356 9.68366L20.2547 6.79969L18.499 6.36219L17.799 9.17016C17.3374 9.05516 16.8634 8.94667 16.3923 8.83917L17.0974 6.01269L15.3427 5.5752L14.6232 8.45816C14.2411 8.37116 13.8661 8.28518 13.502 8.19468L13.504 8.18567L11.0828 7.58117L10.6158 9.45615C10.6158 9.45615 11.9184 9.75465 11.8909 9.77315C12.602 9.95065 12.7305 10.4211 12.709 10.7941L11.8899 14.0796C11.9389 14.0921 12.0024 14.1101 12.0724 14.1381C12.0139 14.1236 11.9514 14.1076 11.8869 14.0921L10.7388 18.6946C10.6518 18.9106 10.4313 19.2346 9.93421 19.1116C9.95171 19.1371 8.65809 18.7931 8.65809 18.7931L7.7865 20.8026L10.0712 21.372C10.4963 21.4785 10.9128 21.59 11.3228 21.695L10.5963 24.612L12.3499 25.0495L13.0695 22.1635C13.5486 22.2935 14.0136 22.4135 14.4686 22.5265L13.7516 25.399L15.5072 25.8365L16.2338 22.925C19.2276 23.4915 21.4788 23.263 22.4264 20.5555C23.19 18.3756 22.3884 17.1181 20.8132 16.2981C21.9604 16.0336 22.8244 15.2791 23.055 13.7206ZM19.0436 19.3451C18.501 21.525 14.8302 20.3465 13.6401 20.051L14.6042 16.1866C15.7943 16.4836 19.6106 17.0716 19.0436 19.3451ZM19.5866 13.6891C19.0916 15.6721 16.0363 14.6646 15.0452 14.4176L15.9193 10.9127C16.9104 11.1596 20.1022 11.6206 19.5866 13.6891Z" fill="white"/>
</svg>
