<svg width="28" height="28" viewBox="0 0 28 28" fill="none" xmlns="http://www.w3.org/2000/svg">
<path d="M22.3883 16.4032C23.7156 16.4032 24.7916 15.3272 24.7916 13.9999C24.7916 12.6726 23.7156 11.5966 22.3883 11.5966C21.061 11.5966 19.985 12.6726 19.985 13.9999C19.985 15.3272 21.061 16.4032 22.3883 16.4032Z" stroke="#27241D" stroke-width="1.75" stroke-linecap="round" stroke-linejoin="round"/>
<path d="M14 16.4032C15.3273 16.4032 16.4033 15.3272 16.4033 13.9999C16.4033 12.6726 15.3273 11.5966 14 11.5966C12.6727 11.5966 11.5967 12.6726 11.5967 13.9999C11.5967 15.3272 12.6727 16.4032 14 16.4032Z" stroke="#27241D" stroke-width="1.75" stroke-linecap="round" stroke-linejoin="round"/>
<path d="M5.61164 16.4032C6.93897 16.4032 8.01497 15.3272 8.01497 13.9999C8.01497 12.6726 6.93897 11.5966 5.61164 11.5966C4.28432 11.5966 3.20831 12.6726 3.20831 13.9999C3.20831 15.3272 4.28432 16.4032 5.61164 16.4032Z" stroke="#29262D" stroke-width="1.75" stroke-linecap="round" stroke-linejoin="round"/>
</svg>
