<svg width="20" height="20" viewBox="0 0 20 20" fill="none" xmlns="http://www.w3.org/2000/svg">
<path d="M12.0416 12.3583C11.0833 13.6583 9.53328 13.6583 8.57495 12.3583C7.61662 11.0583 7.61662 8.94163 8.57495 7.64163C9.53328 6.34163 11.0833 6.34163 12.0416 7.64163" stroke="#9F98AA" stroke-width="1.25" stroke-linecap="round" stroke-linejoin="round"/>
<path d="M7.04163 9H10.3083H7.04163Z" stroke="#9F98AA" stroke-width="1.25" stroke-linecap="round" stroke-linejoin="round"/>
<path d="M7.04163 11H10.3083H7.04163Z" stroke="#9F98AA" stroke-width="1.25" stroke-linecap="round" stroke-linejoin="round"/>
<path d="M17.5 10C17.5 10.9833 17.3083 11.9583 16.925 12.8667C16.55 13.775 15.9917 14.6 15.3 15.3C14.6 16 13.775 16.55 12.8667 16.925C11.9583 17.3 10.9833 17.5 10 17.5C9.01667 17.5 8.04166 17.3083 7.13333 16.925C6.225 16.5417 5.4 15.9917 4.7 15.3C4 14.6 3.45 13.775 3.075 12.8667C2.7 11.9583 2.5 10.9833 2.5 10C2.5 8.00833 3.29167 6.1 4.7 4.7C6.10833 3.29167 8.01667 2.5 10 2.5C11.9917 2.5 13.9 3.29167 15.3 4.7C16.7083 6.1 17.5 8.00833 17.5 10Z" stroke="#9F98AA" stroke-width="1.25" stroke-linecap="round" stroke-linejoin="round"/>
</svg>
