<svg width="32" height="32" viewBox="0 0 32 32" fill="none" xmlns="http://www.w3.org/2000/svg">
<path d="M16.0001 31.3451C24.4749 31.3451 31.3451 24.4749 31.3451 16.0001C31.3451 7.52523 24.4749 0.655029 16.0001 0.655029C7.52523 0.655029 0.655029 7.52523 0.655029 16.0001C0.655029 24.4749 7.52523 31.3451 16.0001 31.3451Z" fill="#003399" stroke="black" stroke-width="0.163743" stroke-miterlimit="10"/>
<path d="M16.4243 25.656L16.0001 24.3523L15.5759 25.656H14.2036L15.3139 26.4607L14.8898 27.7644L16.0001 26.9597L17.1104 27.7644L16.6863 26.4607L17.7966 25.656H16.4243Z" fill="#FFCC00"/>
<path d="M16.0001 4.23535L15.5759 5.53906H14.2036L15.3139 6.34373L14.8898 7.64744L16.0001 6.84276L17.1104 7.64744L16.6863 6.34373L17.7966 5.53906H16.4243L16.0001 4.23535Z" fill="#FFCC00"/>
<path d="M11.3966 24.3087L10.9724 23.005L10.5482 24.3087H9.1759L10.2862 25.1134L9.86206 26.4171L10.9724 25.6124L12.0765 26.4171L11.6586 25.1134L12.7626 24.3087H11.3966Z" fill="#FFCC00"/>
<path d="M7.71003 20.6283L7.2921 19.3246L6.86793 20.6283H5.49561L6.60594 21.433L6.18177 22.7367L7.2921 21.932L8.39619 22.7367L7.97202 21.433L9.08235 20.6283H7.71003Z" fill="#FFCC00"/>
<path d="M5.94468 16.8982L7.04878 17.7028L6.62461 16.4054L7.73494 15.5945H6.36262L5.94468 14.297L5.52051 15.5945H4.14819L5.25852 16.4054L4.83435 17.7028L5.94468 16.8982Z" fill="#FFCC00"/>
<path d="M7.2921 9.26306L6.86793 10.5668H5.49561L6.60594 11.3714L6.18177 12.6751L7.2921 11.8705L8.39619 12.6751L7.97202 11.3714L9.08235 10.5668H7.71003L7.2921 9.26306Z" fill="#FFCC00"/>
<path d="M10.9724 5.58276L10.5482 6.88647H9.1759L10.2862 7.69115L9.86206 8.99485L10.9724 8.19017L12.0765 8.99485L11.6586 7.69115L12.7626 6.88647H11.3966L10.9724 5.58276Z" fill="#FFCC00"/>
<path d="M21.4519 24.3087L21.0277 23.005L20.6035 24.3087H19.2374L20.3415 25.1134L19.9236 26.4171L21.0277 25.6124L22.138 26.4171L21.7138 25.1134L22.8242 24.3087H21.4519Z" fill="#FFCC00"/>
<path d="M25.1321 20.6283L24.708 19.3246L24.29 20.6283H22.9177L24.0281 21.433L23.6039 22.7367L24.708 21.932L25.8183 22.7367L25.3941 21.433L26.5045 20.6283H25.1321Z" fill="#FFCC00"/>
<path d="M27.8519 15.5945H26.4796L26.0554 14.297L25.6375 15.5945H24.2651L25.3755 16.4054L24.9513 17.7028L26.0554 16.8982L27.1657 17.7028L26.7416 16.4054L27.8519 15.5945Z" fill="#FFCC00"/>
<path d="M23.6039 12.6751L24.708 11.8705L25.8183 12.6751L25.3941 11.3714L26.5045 10.5668H25.1321L24.708 9.26306L24.29 10.5668H22.9177L24.0281 11.3714L23.6039 12.6751Z" fill="#FFCC00"/>
<path d="M21.0277 5.58276L20.6035 6.88647H19.2374L20.3415 7.69115L19.9236 8.99485L21.0277 8.19017L22.138 8.99485L21.7138 7.69115L22.8242 6.88647H21.4519L21.0277 5.58276Z" fill="#FFCC00"/>
</svg>
