<svg width="32" height="32" viewBox="0 0 32 32" fill="none" xmlns="http://www.w3.org/2000/svg">
<path d="M0 16C0 7.16344 7.16344 0 16 0V0C24.8366 0 32 7.16344 32 16V16C32 24.8366 24.8366 32 16 32V32C7.16344 32 0 24.8366 0 16V16Z" fill="#F7F7F8"/>
<path d="M5.63637 25H9.45455V15.7296L4 11.6398V23.364C4 24.2692 4.73364 25 5.63637 25Z" fill="#4285F4"/>
<path d="M22.5454 25H26.3636C27.2692 25 28 24.2665 28 23.364V11.6398L22.5454 15.7296" fill="#34A853"/>
<path d="M22.5454 8.64058V15.7297L28 11.6398V9.45856C28 7.43544 25.69 6.2821 24.0727 7.49542" fill="#FBBC04"/>
<path d="M9.45459 15.7297V8.64062L16.0001 13.5484L22.5455 8.64062V15.7297L16.0001 20.6375" fill="#EA4335"/>
<path d="M4 9.45856V11.6398L9.45455 15.7297V8.64058L7.92729 7.49542C6.30728 6.2821 4 7.43544 4 9.45856Z" fill="#C5221F"/>
</svg>
