<svg width="220" height="63" viewBox="0 0 220 63" fill="none" xmlns="http://www.w3.org/2000/svg">
<path d="M30.853 49.4107H0.939514V2.67084H8.35111V42.8003H30.853V49.4107Z" fill="#1B191E"/>
<path d="M46.3496 47.4743L57.1666 15.2906H64.3111L48.286 62.7649H41.1415L45.6819 49.4107H40.1399L28.5217 15.2906H36.1336L46.3496 47.4743Z" fill="#1B191E"/>
<path d="M88.5944 14.6229C93.0013 14.6229 96.6737 16.3367 99.6116 19.7643C102.55 23.1473 104.019 27.3539 104.019 32.384C104.019 37.4141 102.55 41.6207 99.6116 45.0038C96.6737 48.3868 93.0013 50.0784 88.5944 50.0784C85.3894 50.0784 82.585 49.1436 80.1812 47.274C77.822 45.3599 76.1082 42.778 75.0398 39.5285V49.4107H68.0289V0H75.0398V25.1727C76.1082 21.9232 77.822 19.3636 80.1812 17.494C82.585 15.5799 85.3894 14.6229 88.5944 14.6229ZM86.2574 43.6016C89.1953 43.6016 91.6659 42.5332 93.669 40.3965C95.7166 38.2154 96.7405 35.5445 96.7405 32.384C96.7405 29.179 95.7166 26.5081 93.669 24.3715C91.6659 22.1903 89.1953 21.0997 86.2574 21.0997C83.0079 21.0997 80.3148 22.168 78.1781 24.3047C76.0859 26.4414 75.0398 29.1345 75.0398 32.384C75.0398 35.589 76.0859 38.2599 78.1781 40.3965C80.3148 42.5332 83.0079 43.6016 86.2574 43.6016Z" fill="#1B191E"/>
<path d="M126.476 14.6229C131.951 14.6229 136.403 16.5815 139.83 20.4987C143.258 24.416 144.66 29.1567 144.037 34.721H115.793C116.282 37.4809 117.551 39.7288 119.599 41.4649C121.646 43.1564 124.117 44.0022 127.01 44.0022C129.236 44.0022 131.217 43.468 132.953 42.3997C134.733 41.2868 136.113 39.7956 137.093 37.926L142.969 40.5301C141.455 43.4235 139.296 45.7382 136.492 47.4743C133.687 49.2103 130.46 50.0784 126.81 50.0784C121.691 50.0784 117.395 48.3868 113.923 45.0038C110.451 41.6207 108.715 37.4141 108.715 32.384C108.715 27.3539 110.406 23.1473 113.79 19.7643C117.217 16.3367 121.446 14.6229 126.476 14.6229ZM126.476 20.6991C123.894 20.6991 121.646 21.5003 119.732 23.1028C117.863 24.6608 116.616 26.7085 115.993 29.2458H136.959C136.38 26.7085 135.134 24.6608 133.22 23.1028C131.35 21.5003 129.102 20.6991 126.476 20.6991Z" fill="#1B191E"/>
<path d="M157.648 15.2906V24.3047C158.761 20.2539 160.497 17.5163 162.856 16.0918C165.26 14.6674 167.976 14.3113 171.003 15.0235V21.7006C167.308 20.6768 164.147 21.0107 161.521 22.7022C158.939 24.3492 157.648 26.8197 157.648 30.1138V49.4107H150.637V15.2906H157.648Z" fill="#1B191E"/>
<rect x="183" y="28.1821" width="16" height="5" fill="#1B191E"/>
<rect x="204" y="28.1821" width="16" height="5" fill="#1B191E"/>
<rect x="194.415" y="13.4106" width="16" height="5" transform="rotate(60 194.415 13.4106)" fill="#1B191E"/>
<rect x="204.915" y="31.5972" width="16" height="5" transform="rotate(60 204.915 31.5972)" fill="#1B191E"/>
<rect x="212.915" y="15.9106" width="16" height="5" transform="rotate(120 212.915 15.9106)" fill="#1B191E"/>
<rect x="202.415" y="34.0972" width="16" height="5" transform="rotate(120 202.415 34.0972)" fill="#1B191E"/>
</svg>
