<svg width="20" height="20" viewBox="0 0 20 20" fill="none" xmlns="http://www.w3.org/2000/svg">
<path d="M5.71667 4.00829V2.29163" stroke="#9F98AA" stroke-width="1.25" stroke-linecap="round" stroke-linejoin="round"/>
<path d="M14.2833 4.00829V2.29163" stroke="#9F98AA" stroke-width="1.25" stroke-linecap="round" stroke-linejoin="round"/>
<path d="M15.0416 3.15002H4.95829C3.48329 3.15002 2.29163 4.34169 2.29163 5.81669V15.05C2.29163 16.525 3.48329 17.7167 4.95829 17.7167H15.05C16.525 17.7167 17.7166 16.525 17.7166 15.05V5.81669C17.7083 4.34169 16.5166 3.15002 15.0416 3.15002Z" stroke="#9F98AA" stroke-width="1.25" stroke-linecap="round" stroke-linejoin="round"/>
<path d="M2.29163 6.58337H17.7083" stroke="#9F98AA" stroke-width="1.25" stroke-linecap="round" stroke-linejoin="round"/>
<path d="M15 10C15.4602 10 15.8333 9.62694 15.8333 9.16671C15.8333 8.70647 15.4602 8.33337 15 8.33337C14.5397 8.33337 14.1666 8.70647 14.1666 9.16671C14.1666 9.62694 14.5397 10 15 10Z" fill="#9F98AA"/>
<path d="M11.6667 10C12.1269 10 12.5 9.62694 12.5 9.16671C12.5 8.70647 12.1269 8.33337 11.6667 8.33337C11.2065 8.33337 10.8334 8.70647 10.8334 9.16671C10.8334 9.62694 11.2065 10 11.6667 10Z" fill="#9F98AA"/>
<path d="M8.33333 10C8.79357 10 9.16667 9.62694 9.16667 9.16671C9.16667 8.70647 8.79357 8.33337 8.33333 8.33337C7.8731 8.33337 7.5 8.70647 7.5 9.16671C7.5 9.62694 7.8731 10 8.33333 10Z" fill="#9F98AA"/>
<path d="M4.99996 10C5.4602 10 5.83329 9.62694 5.83329 9.16671C5.83329 8.70647 5.4602 8.33337 4.99996 8.33337C4.53972 8.33337 4.16663 8.70647 4.16663 9.16671C4.16663 9.62694 4.53972 10 4.99996 10Z" fill="#9F98AA"/>
<path d="M15 12.9084C15.4602 12.9084 15.8333 12.5353 15.8333 12.075C15.8333 11.6148 15.4602 11.2417 15 11.2417C14.5397 11.2417 14.1666 11.6148 14.1666 12.075C14.1666 12.5353 14.5397 12.9084 15 12.9084Z" fill="#9F98AA"/>
<path d="M11.6667 12.9084C12.1269 12.9084 12.5 12.5353 12.5 12.075C12.5 11.6148 12.1269 11.2417 11.6667 11.2417C11.2065 11.2417 10.8334 11.6148 10.8334 12.075C10.8334 12.5353 11.2065 12.9084 11.6667 12.9084Z" fill="#9F98AA"/>
<path d="M8.33333 12.9084C8.79357 12.9084 9.16667 12.5353 9.16667 12.075C9.16667 11.6148 8.79357 11.2417 8.33333 11.2417C7.8731 11.2417 7.5 11.6148 7.5 12.075C7.5 12.5353 7.8731 12.9084 8.33333 12.9084Z" fill="#9F98AA"/>
<path d="M4.99996 12.9084C5.4602 12.9084 5.83329 12.5353 5.83329 12.075C5.83329 11.6148 5.4602 11.2417 4.99996 11.2417C4.53972 11.2417 4.16663 11.6148 4.16663 12.075C4.16663 12.5353 4.53972 12.9084 4.99996 12.9084Z" fill="#9F98AA"/>
<path d="M11.6667 15.8083C12.1269 15.8083 12.5 15.4352 12.5 14.9749C12.5 14.5147 12.1269 14.1416 11.6667 14.1416C11.2065 14.1416 10.8334 14.5147 10.8334 14.9749C10.8334 15.4352 11.2065 15.8083 11.6667 15.8083Z" fill="#9F98AA"/>
<path d="M8.33333 15.8083C8.79357 15.8083 9.16667 15.4352 9.16667 14.9749C9.16667 14.5147 8.79357 14.1416 8.33333 14.1416C7.8731 14.1416 7.5 14.5147 7.5 14.9749C7.5 15.4352 7.8731 15.8083 8.33333 15.8083Z" fill="#9F98AA"/>
<path d="M4.99996 15.8083C5.4602 15.8083 5.83329 15.4352 5.83329 14.9749C5.83329 14.5147 5.4602 14.1416 4.99996 14.1416C4.53972 14.1416 4.16663 14.5147 4.16663 14.9749C4.16663 15.4352 4.53972 15.8083 4.99996 15.8083Z" fill="#9F98AA"/>
</svg>
