<svg width="24" height="24" viewBox="0 0 24 24" fill="none" xmlns="http://www.w3.org/2000/svg">
<path fill-rule="evenodd" clip-rule="evenodd" d="M12 17.2351C10.8084 18.2592 9.26276 18.8774 7.57377 18.8774C3.80511 18.8774 0.75 15.7994 0.75 12.0024C0.75 8.20548 3.80511 5.12744 7.57377 5.12744C9.26276 5.12744 10.8084 5.74568 12 6.76979C13.1916 5.74568 14.7372 5.12744 16.4262 5.12744C20.1949 5.12744 23.25 8.20548 23.25 12.0024C23.25 15.7994 20.1949 18.8774 16.4262 18.8774C14.7372 18.8774 13.1916 18.2592 12 17.2351Z" fill="#ED0006"/>
<path fill-rule="evenodd" clip-rule="evenodd" d="M12 17.2351C13.4672 15.9741 14.3975 14.0977 14.3975 12.0024C14.3975 9.90715 13.4672 8.03079 12 6.76979C13.1916 5.74568 14.7372 5.12744 16.4262 5.12744C20.1949 5.12744 23.25 8.20548 23.25 12.0024C23.25 15.7994 20.1949 18.8774 16.4262 18.8774C14.7372 18.8774 13.1916 18.2592 12 17.2351Z" fill="#F9A000"/>
<path fill-rule="evenodd" clip-rule="evenodd" d="M12 6.76978C13.4672 8.03078 14.3976 9.90713 14.3976 12.0024C14.3976 14.0977 13.4672 15.974 12.0001 17.235C10.5329 15.974 9.60254 14.0977 9.60254 12.0024C9.60254 9.90713 10.5329 8.03078 12 6.76978Z" fill="#FF5E00"/>
</svg>
