<svg width="32" height="32" viewBox="0 0 32 32" fill="none" xmlns="http://www.w3.org/2000/svg">
<ellipse cx="15.9998" cy="16" rx="15.9998" ry="16" fill="black"/>
<g clip-path="url(#clip0_8142_26472)">
<path d="M23.9173 20.2559L21.2761 23.0461C21.2187 23.1067 21.1492 23.155 21.072 23.1881C20.9948 23.2211 20.9115 23.2381 20.8274 23.2381H8.30651C8.24677 23.2381 8.18832 23.2209 8.13836 23.1886C8.0884 23.1563 8.0491 23.1104 8.02529 23.0564C8.00148 23.0024 7.99419 22.9428 8.00432 22.8848C8.01445 22.8268 8.04156 22.773 8.08232 22.73L10.7256 19.9398C10.7828 19.8793 10.8521 19.8311 10.929 19.7981C11.006 19.7651 11.089 19.748 11.1729 19.7478H23.6931C23.7528 19.7478 23.8113 19.765 23.8613 19.7973C23.9112 19.8295 23.9505 19.8755 23.9744 19.9295C23.9981 19.9834 24.0054 20.0431 23.9953 20.1011C23.9851 20.1591 23.9581 20.2129 23.9173 20.2559ZM21.2761 14.6373C21.2187 14.5767 21.1492 14.5283 21.072 14.4953C20.9948 14.4623 20.9115 14.4453 20.8274 14.4453H8.30651C8.24677 14.4453 8.18832 14.4625 8.13836 14.4948C8.0884 14.5271 8.0491 14.573 8.02529 14.627C8.00148 14.6809 7.99419 14.7406 8.00432 14.7986C8.01445 14.8566 8.04156 14.9104 8.08232 14.9534L10.7256 17.7436C10.7828 17.8041 10.8521 17.8523 10.929 17.8853C11.006 17.9183 11.089 17.9354 11.1729 17.9356H23.6931C23.7528 17.9356 23.8113 17.9184 23.8613 17.8861C23.9112 17.8538 23.9505 17.8079 23.9744 17.7539C23.9981 17.6999 24.0054 17.6403 23.9953 17.5823C23.9851 17.5243 23.9581 17.4705 23.9173 17.4275L21.2761 14.6373ZM8.30651 12.6331H20.8274C20.9115 12.6331 20.9948 12.6161 21.072 12.5831C21.1492 12.55 21.2187 12.5017 21.2761 12.4411L23.9173 9.65092C23.9581 9.6079 23.9851 9.55408 23.9953 9.49608C24.0054 9.43809 23.9981 9.37844 23.9744 9.32447C23.9505 9.2705 23.9112 9.22456 23.8613 9.19229C23.8113 9.16002 23.7528 9.14282 23.6931 9.14282H11.1729C11.089 9.14296 11.006 9.16007 10.929 9.19309C10.8521 9.22611 10.7828 9.27434 10.7256 9.33479L8.083 12.125C8.04228 12.1679 8.01518 12.2217 8.00503 12.2796C7.99487 12.3376 8.00211 12.3972 8.02584 12.4511C8.04956 12.5051 8.08876 12.551 8.13862 12.5833C8.18847 12.6156 8.24682 12.6329 8.30651 12.6331Z" fill="url(#paint0_linear_8142_26472)"/>
</g>
<defs>
<linearGradient id="paint0_linear_8142_26472" x1="9.35045" y1="23.574" x2="22.2591" y2="8.80073" gradientUnits="userSpaceOnUse">
<stop offset="0.08" stop-color="#9945FF"/>
<stop offset="0.3" stop-color="#8752F3"/>
<stop offset="0.5" stop-color="#5497D5"/>
<stop offset="0.6" stop-color="#43B4CA"/>
<stop offset="0.72" stop-color="#28E0B9"/>
<stop offset="0.97" stop-color="#19FB9B"/>
</linearGradient>
<clipPath id="clip0_8142_26472">
<rect width="15.9998" height="14.0952" fill="white" transform="translate(7.99988 9.14282)"/>
</clipPath>
</defs>
</svg>
