<svg width="24" height="24" viewBox="0 0 24 24" fill="none" xmlns="http://www.w3.org/2000/svg">
<path d="M18.25 2.75H5.75C4.09315 2.75 2.75 4.09315 2.75 5.75V18.25C2.75 19.9069 4.09315 21.25 5.75 21.25H18.25C19.9069 21.25 21.25 19.9069 21.25 18.25V5.75C21.25 4.09315 19.9069 2.75 18.25 2.75Z" stroke="#7C38EA" stroke-width="1.5" stroke-linecap="round" stroke-linejoin="round"/>
<path d="M13.73 10.78C13.73 11.34 13.08 11.84 12.09 12.15C11.497 12.3171 10.8858 12.4111 10.27 12.43C10.1569 12.4399 10.0431 12.4399 9.93001 12.43C7.84001 12.43 6.14001 11.68 6.14001 10.76C6.14001 9.83997 7.84001 9.08997 9.93001 9.08997H10.27C10.44 9.08997 10.6 9.08997 10.76 9.08997C11.6533 9.16549 12.5099 9.47979 13.24 9.99997C13.3737 10.0863 13.4868 10.2009 13.5715 10.3357C13.6561 10.4704 13.7102 10.6221 13.73 10.78V10.78Z" stroke="#7C38EA" stroke-width="1.5" stroke-linecap="round" stroke-linejoin="round"/>
<path d="M13.73 10.78V13.17C13.73 13.78 13 14.3 11.9 14.59C11.2469 14.759 10.5746 14.843 9.90001 14.84C8.17001 14.84 6.71001 14.33 6.26001 13.64" stroke="#7C38EA" stroke-width="1.5" stroke-linecap="round" stroke-linejoin="round"/>
<path d="M13.73 13.17V15.66C13.73 16.59 12.03 17.33 9.93001 17.33C7.83001 17.33 6.14001 16.59 6.14001 15.66" stroke="#7C38EA" stroke-width="1.5" stroke-linecap="round" stroke-linejoin="round"/>
<path d="M10.49 8.90004C10.356 8.74331 10.2785 8.54609 10.27 8.34004C10.27 7.42004 11.97 6.67004 14.07 6.67004C16.17 6.67004 17.86 7.42004 17.86 8.34004C17.86 9.26004 16.16 10 14.07 10C13.7936 10.0153 13.5165 10.0153 13.24 10" stroke="#7C38EA" stroke-width="1.5" stroke-linecap="round" stroke-linejoin="round"/>
<path d="M13.73 14.88H14.07C16.16 14.88 17.86 14.14 17.86 13.22" stroke="#7C38EA" stroke-width="1.5" stroke-linecap="round" stroke-linejoin="round"/>
<path d="M13.73 12.39H14.07C16.16 12.39 17.86 11.64 17.86 10.73" stroke="#7C38EA" stroke-width="1.5" stroke-linecap="round" stroke-linejoin="round"/>
<path d="M17.86 13.22V10.73V8.33997" stroke="#7C38EA" stroke-width="1.5" stroke-linecap="round" stroke-linejoin="round"/>
<path d="M6.14001 15.66V10.78" stroke="#7C38EA" stroke-width="1.5" stroke-linecap="round" stroke-linejoin="round"/>
</svg>
